<svg id="Layer_1" data-name="Layer 1" xmlns="http://www.w3.org/2000/svg" viewBox="0 0 100 100"><defs><style>.cls-1{fill:#199cc4;}</style></defs><title>Untitled-1</title><path class="cls-1" d="M84.07,55.3a51.56,51.56,0,0,0,.32-5.71H6.6c0,16.63,7.93,31.13,19.7,38.8H7.56C7.56,94.8,13.7,100,21.28,100H69.7c7.58,0,13.72-5.2,13.72-11.61H64.69a39.32,39.32,0,0,0,5.61-4.44,19.23,19.23,0,0,0,2.6.17,25.58,25.58,0,0,0,13.32-3.87c4.63-3,7.18-7.29,7.18-12.1A13.54,13.54,0,0,0,84.07,55.3Zm-.92,20.2a19.57,19.57,0,0,1-7.89,2.8A47.06,47.06,0,0,0,83.1,61a7.86,7.86,0,0,1,4.64,7.16C87.74,71.77,85.24,74.14,83.15,75.49Z"/><path class="cls-1" d="M47.83,44.45a11.67,11.67,0,0,1-5.59-16.06c1.41-2.7,3.8-4.74,5.48-7.27a17.15,17.15,0,0,0,2.74-8c.28-3.24-.47-6.8-2.95-8.91C45.36,2.37,42.44,1.78,40.23,0c2.4,3.89,3.44,8.51,1.23,12.84-1.07,2.1-2.74,3.83-4,5.82a17.61,17.61,0,0,0-1.64,15.7A16.57,16.57,0,0,0,47.83,44.45Z"/><path class="cls-1" d="M49.07,31.65c-.91,1.62-1.75,3.44-1.43,5.27s1.75,3.26,3.1,4.55c1,1,2.4,2.62,3.92,2.56a8.56,8.56,0,0,1-3-5.37,10.23,10.23,0,0,1,1.73-6.73c.59-.9,1.3-1.72,1.84-2.65a8.61,8.61,0,0,0-.62-9.3c.57,2.51-1.15,4.89-2.62,7A54.52,54.52,0,0,0,49.07,31.65Z"/></svg>