<svg id="Layer_1" data-name="Layer 1" xmlns="http://www.w3.org/2000/svg" viewBox="0 0 80 80"><defs><style>.cls-1{fill:#1d8dc4;}</style></defs><title>Untitled-1</title><path class="cls-1" d="M33.76,14.16c-1.84,2.18-2.3,6.08,0,8.15a11.08,11.08,0,0,0,1.15,1.15c.69.46,1.49,1.38,1,2.06h-19V43c-.57.57-1.49-.12-2.07-.69-.34-.35-.69-.81-.92-1a4.67,4.67,0,0,0-3.33-1.83A7.35,7.35,0,0,0,3,44.11a8.49,8.49,0,0,0,2.18,9.18c2.3,2,6.2,2.41,8.49.12.34-.35.69-.81,1-1.15.58-.69,1.49-1.61,2.18-.92V68.78h19A3.09,3.09,0,0,0,35,66.71a7.27,7.27,0,0,0-.92-.92,5.1,5.1,0,0,1-1.84-3.33A7.36,7.36,0,0,1,37,54.89a8.34,8.34,0,0,1,9.18,2.3c1.83,2.29,2.41,6.19.11,8.26A12,12,0,0,1,45,66.6a3.13,3.13,0,0,0-.92,2.18h19V51.33c.57-.57,1.49.12,2.06.81a7,7,0,0,0,.92.92,4.46,4.46,0,0,0,3.21,1.83A7.55,7.55,0,0,0,77.14,50c.92-3.21.11-7-2.53-9.06-2.29-1.84-6.08-2.3-8.26,0a11.48,11.48,0,0,0-1,1.26c-.57.69-1.61,1.49-2.18.81V25.52h-19a.11.11,0,0,1,.11.11h-.11c-.57-.57.23-1.49.8-2.06A9,9,0,0,1,46,22.65a5.22,5.22,0,0,0,1.72-3.33,7.45,7.45,0,0,0-5-7.69,8.32,8.32,0,0,0-8.95,2.52Z"/></svg>