<svg id="Layer_1" data-name="Layer 1" xmlns="http://www.w3.org/2000/svg" viewBox="0 0 80 80"><defs><style>.cls-1{fill:#d21c38;}</style></defs><title>Untitled-1_Current_location</title><path class="cls-1" d="M69.34,37.32A29.47,29.47,0,0,0,42.68,10.66V2.5H37.32v8.16A29.47,29.47,0,0,0,10.66,37.32H2.5v5.36h8.16A29.47,29.47,0,0,0,37.32,69.34V77.5h5.36V69.34A29.47,29.47,0,0,0,69.34,42.68H77.5V37.32ZM64.11,40A24.11,24.11,0,1,1,40,15.89,24.11,24.11,0,0,1,64.11,40ZM40,58.75A18.75,18.75,0,1,0,21.25,40,18.75,18.75,0,0,0,40,58.75Z"/></svg>