<svg id="Layer_1" data-name="Layer 1" xmlns="http://www.w3.org/2000/svg" viewBox="0 0 80 80"><defs><style>.cls-1{fill:#fff;}</style></defs><title>Untitled-1</title><path class="cls-1" d="M49.86,2.5c2,0,4,.11,6,.2,1.31.05,2.61.24,3.84.37l-.09,12.08h-1l-4,0c-1,0-2,0-3,0-3.2.11-5.55,1.31-5.72,5.3-.1,2.88-.18,9.24-.18,9.57H59.14c-.65,4.64-1.24,9.09-1.89,13.57H45.82L45.56,77.5h-14l.26-33.94H20.28l.1-13.49H31.92v-1c0-2.72,0-5.44.09-8.16a33.86,33.86,0,0,1,.44-5.17A15.35,15.35,0,0,1,38.62,5.66,17.67,17.67,0,0,1,48.74,2.51Z"/></svg>