<svg id="Layer_1" data-name="Layer 1" xmlns="http://www.w3.org/2000/svg" viewBox="0 0 80 80"><defs><style>.cls-1{fill:#fff;}</style></defs><title>Untitled-1</title><path class="cls-1" d="M26.89,16.27a22.28,22.28,0,0,1,11.23,3.08,27.88,27.88,0,0,1,4.2,3.08c-2.37,2.33-4.65,4.61-7,6.89A12.77,12.77,0,0,0,28.41,26a14,14,0,0,0-2-.15A14.22,14.22,0,0,0,12.72,36.9a13,13,0,0,0-.33,4.29,14.2,14.2,0,0,0,9.7,12.35,13.73,13.73,0,0,0,4.14.63q.49,0,1,0a13.93,13.93,0,0,0,6.93-2.21,11,11,0,0,0,4.71-7.14H26.14l.07-9.15,0-.39H48.56c1.2,7,.12,14.29-4.22,20A20.87,20.87,0,0,1,32.6,62.92a25.54,25.54,0,0,1-6.41.81q-.69,0-1.38,0A23.55,23.55,0,0,1,3,45a21.52,21.52,0,0,1-.45-6.39A23.28,23.28,0,0,1,7.92,25.08,23.56,23.56,0,0,1,20.7,17a19.32,19.32,0,0,1,3.93-.62C25.38,16.31,26.13,16.27,26.89,16.27Z"/><polygon class="cls-1" points="69.28 27.27 69.28 27.5 69.22 35.55 77.25 35.55 77.5 35.55 77.5 35.78 77.45 41.78 77.45 42.04 77.2 42.04 69.17 42.04 69.1 50.07 69.1 50.3 68.87 50.3 62.85 50.3 62.62 50.3 62.62 50.07 62.68 42.04 54.65 42.04 54.4 42.04 54.4 41.78 54.45 35.78 54.45 35.55 54.7 35.55 62.73 35.55 62.79 27.5 62.8 27.27 63.02 27.27 69.05 27.27 69.28 27.27"/></svg>