<svg id="Layer_1" data-name="Layer 1" xmlns="http://www.w3.org/2000/svg" viewBox="0 0 80 80"><defs><style>.cls-1{fill:#fff;}</style></defs><title>Untitled-1</title><path class="cls-1" d="M60.14,15.55h.06a4.46,4.46,0,0,1,4.45,4.52,4.55,4.55,0,0,1-4.55,4.49,4.5,4.5,0,0,1,0-9Z"/><path class="cls-1" d="M77,21.34c.56,5.9.92,33.78-.82,40.32-2.32,8.55-7.9,13.61-16.55,15-3.23.52-12,.84-20.68.84-8.93,0-17.84-.33-20.83-1.11C9.64,74.18,4.57,68.64,3.22,60c-1-6.32-1.11-35.71.71-42.09C6.31,9.62,11.86,4.75,20.27,3.36c3.81-.62,11.26-.84,18.79-.84,7,0,14.06.19,18.31.42a20.66,20.66,0,0,1,13.69,5.6A19.73,19.73,0,0,1,77,21.34ZM69.83,58.79c1.07-6.59,1.08-30.65.46-36.82-.67-6.59-4.7-10.93-11.23-12-3.23-.49-11-.71-18.75-.71-7.47,0-14.9.2-18.17.56-6.54.75-10.94,4.79-12,11.29C9.09,28.05,9.11,53.82,9.91,59c.83,5.39,3.88,9.09,9.25,10.6,2.91.82,11.62,1.11,20.17,1.11,7.87,0,15.59-.25,18.49-.57,6.6-.72,11-4.79,12-11.35"/><path class="cls-1" d="M40.16,20.79A19.05,19.05,0,0,1,59.22,40,19.41,19.41,0,0,1,39.84,59.24,19,19,0,0,1,20.77,40,19.37,19.37,0,0,1,40.16,20.79Zm-.28,31.65A12.56,12.56,0,0,0,52.42,40.12,12.31,12.31,0,0,0,40.2,27.57h-.11A12.56,12.56,0,0,0,27.55,39.88,12.33,12.33,0,0,0,39.77,52.44h.11"/></svg>