<svg id="Layer_1" data-name="Layer 1" xmlns="http://www.w3.org/2000/svg" viewBox="0 0 80 80"><defs><style>.cls-1{fill:#fff;}</style></defs><title>Untitled-1</title><path class="cls-1" d="M30.41,14.7C12,21.69-3,33.54,4.46,53.47A34,34,0,0,0,18.74,70.72a49.31,49.31,0,0,1,1.46-7.54c-1.24-3.86-2.43-7.75-3.46-11.69A121.74,121.74,0,0,1,14,39.15a121.55,121.55,0,0,1,5.18,11.53c.95,2.34,1.82,4.73,2.66,7.11a71.36,71.36,0,0,1,7.83-15.73c.6-.89,1.21-1.78,1.84-2.65-.09-.55-.14-1.09-.19-1.63a31.74,31.74,0,0,1,.76-9.52,19.77,19.77,0,0,1,1.7-4.67,19.43,19.43,0,0,1,.93,4.88,31.37,31.37,0,0,1,0,4.79c-.07.77-.16,1.55-.28,2.32a61.93,61.93,0,0,1,6.83-7.27,67.06,67.06,0,0,1,6.9-5.7,75.84,75.84,0,0,1,7.61-4.67c-1.91,2.32-4.06,4.31-6,6.53s-3.91,4.28-5.7,6.55c-2.68,3.14-5.13,6.45-7.48,9.79.34-.2.69-.39,1-.57a36.64,36.64,0,0,1,4.87-2.13,37,37,0,0,1,5.1-1.46,23.36,23.36,0,0,1,5.43-.53,23.42,23.42,0,0,1-4.55,3,36.87,36.87,0,0,1-4.85,2.13,37,37,0,0,1-5.11,1.44,23.76,23.76,0,0,1-3.58.5l-1.09,1.6a150.56,150.56,0,0,0-8.57,14.88l-.3.6c2.9-.89,5.82-1.72,8.77-2.48,2.08-.56,4.19-1.05,6.31-1.54s4.23-.89,6.4-1.2c-1.93,1-3.92,1.9-5.89,2.79s-4,1.68-6,2.45C30.84,61.8,27,63.13,23.11,64.41q-1.61,3.46-3,7A28.66,28.66,0,0,0,40.63,74.1c8.55-2.16,16.67-8.35,19.08-23.41C65.48,14.47,77.5,5.06,77.5,5.06S51.74,6.59,30.41,14.7Z"/></svg>