<svg id="Layer_1" data-name="Layer 1" xmlns="http://www.w3.org/2000/svg" viewBox="0 0 100 100"><defs><style>.cls-1{fill:#199cc4;}</style></defs><title>Untitled-1</title><path class="cls-1" d="M50.67,23.86a2.11,2.11,0,0,0-2.77,0L11.39,56.42v36.8H88.61V56.42ZM47.49,76.55a2,2,0,0,1-2,2H38a2,2,0,0,1-2-2V69.1a2,2,0,0,1,2-2h7.45a2,2,0,0,1,2,2Zm0-16.26a2,2,0,0,1-2,2H38a2,2,0,0,1-2-2V52.84a2,2,0,0,1,2-2h7.45a2,2,0,0,1,2,2ZM64,76.55a2,2,0,0,1-2,2H54.54a2,2,0,0,1-2-2V69.1a2,2,0,0,1,2-2H62a2,2,0,0,1,2,2Zm0-16.26a2,2,0,0,1-2,2H54.54a2,2,0,0,1-2-2V52.84a2,2,0,0,1,2-2H62a2,2,0,0,1,2,2Z"/><path class="cls-1" d="M98.53,44.29l-40-34.44a13.4,13.4,0,0,0-17.07,0l-40,34.44c-3.1,2.67-1,7.35,3.34,7.35H7.24S34.48,27.18,43.68,19.16c4.52-3.94,7.16-3.57,11.1-.1,9.39,8.26,38,32.58,38,32.58h2.43C99.5,51.64,101.63,47,98.53,44.29Z"/><path class="cls-1" d="M26.36,14.51V11a2.77,2.77,0,0,0-2.77-2.77H14.16A2.77,2.77,0,0,0,11.39,11V27.4Z"/></svg>