<svg id="Layer_1" data-name="Layer 1" xmlns="http://www.w3.org/2000/svg" viewBox="0 0 80 80"><defs><style>.cls-1{fill:#fff;}.cls-2{fill:#6937a1;}</style></defs><title>Untitled-1</title><rect class="cls-1" x="26.66" y="18.68" width="27.23" height="27.23" rx="13.61" ry="13.61"/><path class="cls-2" d="M69.66,32.16a29.66,29.66,0,1,0-55.23,15h0l.08.11c1.14,1.92,2.56,3.29,4,5.3L35.73,75.37a5.36,5.36,0,0,0,8.55,0L61.21,52.93a64,64,0,0,0,4.31-5.71l.06-.08h0A29.48,29.48,0,0,0,69.66,32.16ZM40,45.08A13.05,13.05,0,1,1,53.05,32,13.05,13.05,0,0,1,40,45.08Z"/></svg>