<svg id="Layer_1" data-name="Layer 1" xmlns="http://www.w3.org/2000/svg" viewBox="0 0 100 100"><defs><style>.cls-1{fill:#199cc4;}</style></defs><title>Untitled-1</title><path class="cls-1" d="M45.8,65.07A34.44,34.44,0,0,1,96.28,51.69c.14-1.48.22-3,.22-4.51A47.1,47.1,0,1,0,3.75,58.79a34.4,34.4,0,0,1,42,6.27Z"/><path class="cls-1" d="M46.13,87.31a12,12,0,0,0-1.73-5,16.87,16.87,0,0,0-.67-5.82C41.83,68,34,62.49,26.84,60.58c-7.39-2.21-16.17,2.88-17.13,4.81C8.48,66.51,7.23,70.48,7.47,71l.12-.24a8.12,8.12,0,0,1,3.33.1,12.25,12.25,0,0,1,4.91,2.52c4.22,3.23,7.1,8,11.25,11.09,4.59,3.39,8.22,3.24,12.34,2.14a9,9,0,0,0,2.46-1.25C39.75,81.6,31.06,67.94,16.07,67.86c0,0,.33-.07.91-.12h-1.4l1.33-.21c9.37-1.17,14.75,3.17,14.75,3.17A34,34,0,0,1,39,76.85a30.61,30.61,0,0,1,3.62,5.25c.07.12.3.46.59,1h0s2.64,7,.68,12.56l2.45-.1A23.35,23.35,0,0,0,46.13,87.31Z"/><path class="cls-1" d="M50.58,86.91c-1,2.54-3.18,8.23-3.18,11.36l2.33,1.21a.8.8,0,0,0,.58.52,30.2,30.2,0,0,1,1-7.86,44.64,44.64,0,0,1,3.18-7.93,50,50,0,0,1,5.64-8.65A53,53,0,0,1,71.27,65.34s-.35.39-1,1c-.31.33-.69.72-1.14,1.16s-.95.94-1.47,1.5S66.58,70.2,66,70.81s-1.2,1.34-1.86,2c-.32.35-.67.69-1,1.07s-.63.76-1,1.13l-1,1.14-.93,1.19c-.31.4-.65.78-.94,1.18l-.88,1.21c-.6.79-1.11,1.62-1.65,2.4-.27.39-.48.8-.73,1.19s-.48.76-.68,1.15l-.6,1.11c-.19.36-.36.72-.53,1.06s-.32.67-.46,1-.29.61-.4.9c-.18.47-.34.89-.47,1.26C66.5,90.52,80,95,84.32,73.74A27.75,27.75,0,0,1,97.69,55.83C65.19,49.61,43.91,55.67,50.58,86.91Z"/></svg>