<svg id="Layer_1" data-name="Layer 1" xmlns="http://www.w3.org/2000/svg" viewBox="0 0 100 100"><defs><style>.cls-1{fill:#199cc4;}</style></defs><title>Untitled-1</title><path class="cls-1" d="M31.12,49.3a.39.39,0,0,1,.47-.61c4.6,2.46,7,8,8.93,12.53A54.67,54.67,0,0,1,43,68.5c1.67-3,3.23-10.95-.63-18.08C37.8,41.88,22.89,34.15,22.89,34.15s-1.43,17.2,2.91,25.25C29.64,66.49,38,69.81,41.12,69.83,39.27,62.29,36.51,55,31.12,49.3Z"/><path class="cls-1" d="M54.12,47.74C47.56,54.06,46.31,63,46.93,67.16A65.59,65.59,0,0,1,50.68,61c4-5.74,9.5-9.36,15.7-12.38a.38.38,0,0,1,.38.65c-6.3,3.76-11.46,8-15.17,14.41-1.13,2-2.15,4-3.12,6,3.27,1.2,14,.57,20.94-6.1,7.69-7.41,12.2-27,12.2-27S62.29,39.88,54.12,47.74Z"/><path class="cls-1" d="M50,96.47A46.47,46.47,0,1,1,96.47,50,46.52,46.52,0,0,1,50,96.47ZM50,7.26A42.74,42.74,0,1,0,92.74,50,42.78,42.78,0,0,0,50,7.26Z"/><path class="cls-1" d="M50,100a50,50,0,1,1,50-50A50.06,50.06,0,0,1,50,100ZM50,.75A49.25,49.25,0,1,0,99.25,50,49.31,49.31,0,0,0,50,.75Z"/></svg>