<svg xmlns="http://www.w3.org/2000/svg" xmlns:xlink="http://www.w3.org/1999/xlink" viewBox="0 0 500 500"><defs><style>.cls-1,.cls-6{fill:#6e6f71;}.cls-1{opacity:0.3;}.cls-2{isolation:isolate;}.cls-3{fill:#1d8dc4;}.cls-4{opacity:0.7;mix-blend-mode:screen;}.cls-5{clip-path:url(#clip-path);}.cls-6{fill-rule:evenodd;}</style><clipPath id="clip-path"><path class="cls-1" d="M475,250c0,124.28-100.75,225-225,225S25,374.27,25,250,125.73,25,250,25,475,125.73,475,250Z"/></clipPath></defs><title>default_profile</title><g class="cls-2"><g id="Layer_1" data-name="Layer 1"><rect class="cls-3" x="25" y="25" width="450" height="450" rx="225" ry="225"/><g class="cls-4"><path class="cls-1" d="M475,250c0,124.28-100.75,225-225,225S25,374.27,25,250,125.73,25,250,25,475,125.73,475,250Z"/><g class="cls-5"><path class="cls-6" d="M501.54,478.89a88,88,0,0,0-13-22.84c-8.64-11-20.05-18.8-32.59-24.73-3.63-1.73-7.2-3.8-11.21-4.71-12.52-2.85-24.91-6.2-37.22-9.88a16.17,16.17,0,0,1-11.48-4c-9.13-3.74-18.7-6.4-27.21-11.57-3-.47-5.85-1.22-7.89-3.66-1.55-.42-2.86-1.43-4.41-1.87a19.46,19.46,0,0,1-11-7c-1.71-1.11-3.5-2.12-5.12-3.4a6.91,6.91,0,0,1-3.83-5c-.73-3.23-1.71-6.43-2.59-9.63-1.17-3.19-1.22-6.6-1.88-9.92-.4-1.84-.86-3.43-2.9-4-2-1-3.88,0-5.72.34-3.81.82-5.85-.37-6.47-4.38-.42-2.9-1.22-5.81-1.35-8.66-.31-6.39-1.29-13.14,4.83-17.84A251.09,251.09,0,0,0,337.25,281c1-3.49,2.59-6.46,7.27-6.58,2.77-.07,5.05-2,6-5,2.75-9.13,5.38-18.32,9.59-26.92,1.31-6.29,4.43-12.12,4.7-18.66-.07-1.3.29-2.61.16-3.92a3.41,3.41,0,0,0-.73-1.38,5.74,5.74,0,0,1-.71-.51c.13-2.8.33-5.59.24-8.37-.13-3.9-2-7.13-5.81-8.13-3.52-.92-4.17-2.84-4-6,.82-12.27,1.51-24.56,2.24-36.84a1.17,1.17,0,0,0-.13-1.15.68.68,0,0,0,0-.74c-.35-3.72-.69-7.45-1.11-11.16-1-8.9-1.95-17.87-6.62-25.75A89.44,89.44,0,0,0,311.14,85c-13.29-6.76-27.72-10.13-42.23-13-30.18-6-57,.68-80.48,20.71a3,3,0,0,1,.18.63h0a18,18,0,0,0-6.23,6.71c-2.79,5.24-6.89,9.5-11.12,13.47-7.82,7.33-12.1,15.83-10.86,26.62a3.82,3.82,0,0,0-.86.5,5.59,5.59,0,0,0-1,1.35c-1.88,8.77.49,17.48.47,26.25,2.15,7.4,2.19,15,2.81,22.61.33,4.15-.82,7-4.85,8.39-5.12,1.81-7.16,5.92-7.82,10.86a38,38,0,0,0,.56,15.46c2,7.21,4.08,14.4,6.4,21.51a57.91,57.91,0,0,1,7.27,19.45c.89,4.48,2.77,7,6.67,8.5a8.39,8.39,0,0,1,5.69,6.67c1.15,5.25,3.12,10.26,4.72,15.37,1.86,4.15,4.94,7.84,5,12.7a4.89,4.89,0,0,0,.36,1.47c8.88,14.16,13.65,29,7.82,45.71-3,3.23-6-.16-9.06-.21s-5.54-.34-6.29,3.37c-2.28,7.25-3.52,14.76-5.83,22-1.24,4-3.23,6.85-7,8.75a143.41,143.41,0,0,1-25.55,10.5c-5.92,4.19-13.05,5.5-19.7,7.93-12.9,4.75-26.41,7.46-39.68,11-16.24,4.34-32,9.76-45.58,20.14-6.91,8.48-16,15.38-19.41,26.46,0,4.72.27,9.46-.09,14.15-.27,3.66.78,4.53,4.48,4.53q240.43-.18,480.82-.09C503.1,483.54,502.5,481.36,501.54,478.89Z"/></g></g></g></g></svg>