<svg id="Layer_1" data-name="Layer 1" xmlns="http://www.w3.org/2000/svg" viewBox="0 0 80 80"><defs><style>.cls-1{fill:#fff;}</style></defs><title>Untitled-1</title><path class="cls-1" d="M30.74,19a7,7,0,0,0,7.93-1.2l8.66,16-3.68,2,19.1,11.73.61-22.41-3.68,2L50,9.11a12.62,12.62,0,0,0-22.43.44A7,7,0,0,0,30.74,19Z"/><path class="cls-1" d="M74.64,54.68a7,7,0,0,0-13.09,4.59H46.1V55.08L26.68,66.29,46.1,77.5V73.32H63.54a12.62,12.62,0,0,0,11.1-18.64Z"/><path class="cls-1" d="M18.58,59.59l7.37-15.2,3.76,1.83L28.09,23.86,9.54,36.44l3.77,1.83L5.13,55.12a12.63,12.63,0,0,0,11.33,18.2,7,7,0,0,0,2.12-13.73Z"/></svg>