<svg id="Layer_1" data-name="Layer 1" xmlns="http://www.w3.org/2000/svg" viewBox="0 0 80 80"><defs><style>.cls-1{fill:#fff;}</style></defs><title>Untitled-1</title><path class="cls-1" d="M77.5,16.88a23.87,23.87,0,0,1-1.74,2.35,29.08,29.08,0,0,1-5.61,5.31l-.26.49a41.55,41.55,0,0,1-.34,6.8A45.52,45.52,0,0,1,57.12,57.59,41.36,41.36,0,0,1,35.93,69.36a47.49,47.49,0,0,1-8.56,1l-1.38,0A43,43,0,0,1,2.87,63.77l-.37-.23a33.81,33.81,0,0,0,3.61.2,31.19,31.19,0,0,0,11.77-2.29,30.47,30.47,0,0,0,7.32-4.28A15.22,15.22,0,0,1,11,46.51a14.84,14.84,0,0,0,2.85.28,16.14,16.14,0,0,0,3.73-.45l.23-.11a15,15,0,0,1-9.91-7A14.92,14.92,0,0,1,5.7,31a15.11,15.11,0,0,0,6.82,1.84A15.37,15.37,0,0,1,8,12.46a43.49,43.49,0,0,0,31.52,16c-.08-.63-.16-1.15-.25-1.69a14.89,14.89,0,0,1,2.34-10A14.8,14.8,0,0,1,52.09,9.85a17,17,0,0,1,2.79-.24,14.81,14.81,0,0,1,10.61,4.52.81.81,0,0,0,.56.26l.24,0a30.34,30.34,0,0,0,9-3.42l.2-.11a15.13,15.13,0,0,1-6.52,8.35A29.69,29.69,0,0,0,77.5,16.88Z"/></svg>