<svg id="Layer_1" data-name="Layer 1" xmlns="http://www.w3.org/2000/svg" viewBox="0 0 80 80"><defs><style>.cls-1{fill:#fff;}</style></defs><title>Untitled-1</title><path class="cls-1" d="M75.6,20.54c2.69,7.08,2.58,32.87-.65,39.69a9,9,0,0,1-4.08,4.11c-2.53,1.3-17.2,1.92-31.58,1.92-13.23,0-26.21-.52-29.25-1.51a8.69,8.69,0,0,1-5.73-5.6C1.88,52.31,1.34,23.63,6.2,18a9.37,9.37,0,0,1,6.29-3.32c5.77-.62,16.89-.93,27.86-.93,13.66,0,27.09.47,29.63,1.39A8.84,8.84,0,0,1,75.6,20.54ZM30.69,51.32c7.78-4.05,15.54-8,23.38-12.1L30.87,27.07l-.19,24.25"/></svg>