<svg id="Layer_1" data-name="Layer 1" xmlns="http://www.w3.org/2000/svg" xmlns:xlink="http://www.w3.org/1999/xlink" viewBox="0 0 600 600"><defs><style>.cls-1{fill:none;}.cls-2{fill:#f9ae9e;}.cls-3{fill:#f3735e;}.cls-4{fill:#fdfaf5;}.cls-5{fill:#fbba32;}.cls-6{fill:#199cc4;}.cls-7{fill:#2a2b50;}.cls-8{fill:#fff;}.cls-9{fill:#033c3b;}.cls-10{fill:#d57082;}.cls-11{opacity:0.37;}.cls-12{fill:#f15f6f;}.cls-13{fill:#f6b767;}.cls-14{opacity:0.17;}.cls-15{clip-path:url(#clip-path);}.cls-16{clip-path:url(#clip-path-2);}.cls-17{fill:#ffc709;}</style><clipPath id="clip-path"><path class="cls-1" d="M262.9,145.83c1.15,1,18.11,32.51,15.84,46.09-1.53,9.11,4.29,26-1.5,43.8,0,0-29.76-1.12-73.06-10-1.38-14.22-1.25-57,17.62-79,0,0,11.6-1.58,16.36-1.39C238.15,145.31,259.28,162.4,262.9,145.83Z"/></clipPath><clipPath id="clip-path-2"><path class="cls-1" d="M288.48,206.68c-16.83-11.89-24.47-27.45-35-53.14,0,0-4.86-13.86-22.41-11.4s-13.43,25.4-13.43,25.4c3.44,22.78,7.5,35.95,26,48Z"/></clipPath></defs><title>bike1</title><path class="cls-2" d="M302.87,408.36C298.8,419.66,285.75,446,285.75,446l46,21.79c-4.2-5.83-17.45-29.07-17.45-29.07l7.25-21.81S302.75,408.53,302.87,408.36Z"/><path class="cls-3" d="M314.43,438.77l18.23,28.78a1.61,1.61,0,0,1-1.86,2.41c-11.75-4.2-43.31-15.72-51.61-18.77a1.6,1.6,0,0,1-.69-2.48c3.64-4.76,12.58-18.61,15.6-22.45.48-.61,3.27,14.71,7.2,14.6C304.67,440.77,314.16,438.71,314.43,438.77Z"/><path class="cls-4" d="M309.88,450.64a3.92,3.92,0,0,1-1.66-7.48l7.11-3.3.46,1-7.11,3.3a2.83,2.83,0,0,0,2.39,5.14l8-3.71.46,1-8,3.71A3.89,3.89,0,0,1,309.88,450.64Z"/><path class="cls-3" d="M302.57,408.2l-8.48,18.06s2.48,10.68,3.53,11.16S310.57,412,310.57,412Z"/><path class="cls-5" d="M196.92,292.45c-9.73-24.71,13.86-47.92,19.47-57.66,5,0,14.79,11.46,23.66,12.4,39.29,4.14,88.2,33.08,101.39,42.27,21,14.6-10.71,117.37-17.6,137.59-2.09,1.64-31.26-12.17-29.76-11.42,8.48-44.82,26.56-66.09,5.81-83.09C280.49,316.65,205.88,315.18,196.92,292.45Z"/><path class="cls-6" d="M413.7,265.36a3,3,0,0,1-2.68-1.7L405.13,251a8.87,8.87,0,0,0-8.25-5.11l-30.56.78a3,3,0,1,1-.15-5.9l30.56-.78a14.77,14.77,0,0,1,13.76,8.51l5.89,12.63a3,3,0,0,1-2.67,4.2Z"/><path class="cls-6" d="M366.24,246.7a3,3,0,0,1-.07-5.9l30.56-.78a3,3,0,1,1,.15,5.9l-30.56.78Z"/><circle class="cls-6" cx="508.92" cy="472.05" r="13.06"/><circle class="cls-7" cx="508.92" cy="472.05" r="9.13"/><path class="cls-6" d="M398.05,476.5a4.45,4.45,0,0,1-4.45-4.45A115.45,115.45,0,0,1,508.92,356.74a4.45,4.45,0,1,1,0,8.89A106.54,106.54,0,0,0,402.5,472.05,4.45,4.45,0,0,1,398.05,476.5Z"/><circle class="cls-6" cx="160.11" cy="472.05" r="13.06"/><circle class="cls-7" cx="160.11" cy="472.05" r="8.6"/><path class="cls-6" d="M270.86,476.5a4.44,4.44,0,0,1-4.44-4.44A106.44,106.44,0,0,0,160.11,365.74a4.44,4.44,0,0,1,0-8.88,115.33,115.33,0,0,1,115.2,115.2A4.44,4.44,0,0,1,270.86,476.5Z"/><rect class="cls-8" x="371.33" y="389.92" width="7.86" height="15.32" transform="translate(-169.32 349.36) rotate(-41.59)"/><path class="cls-6" d="M302.06,437.74,300.77,430l.65,3.88-.65-3.88c.2,0,20.68-3.72,45.27-23.42,22.77-18.24,53.83-54.33,72.53-122.69l7.58,2.07c-19.35,70.73-51.82,108.17-75.66,127.12C324.37,433.83,303,437.59,302.06,437.74Z"/><path class="cls-6" d="M409.25,262.42l95.62,211.47a4.45,4.45,0,1,0,8.1-3.66L417.35,258.75Z"/><path class="cls-6" d="M318.82,481a4.45,4.45,0,0,1-4-2.57L241.23,320.17a4.45,4.45,0,0,1,8.06-3.75l73.55,158.28a4.45,4.45,0,0,1-4,6.32Z"/><path class="cls-6" d="M310.89,476.5H160.11a4.45,4.45,0,0,1-2.93-7.79l109.48-96a4.45,4.45,0,1,1,5.86,6.68L171.91,467.61H309.14L447.05,339.37a4.45,4.45,0,0,1,6.05,6.51L313.92,475.31A4.45,4.45,0,0,1,310.89,476.5Z"/><circle class="cls-7" cx="316.55" cy="471.06" r="11.67"/><path class="cls-7" d="M316.55,497.57a26.5,26.5,0,1,1,26.5-26.5A26.53,26.53,0,0,1,316.55,497.57Zm0-49.18a22.67,22.67,0,1,0,22.67,22.67A22.7,22.7,0,0,0,316.55,448.39Z"/><path class="cls-6" d="M245.52,318.44h-28a8.94,8.94,0,0,1-8.93-8.93v-5.36a1.28,1.28,0,0,1,2.55,0v5.36a6.39,6.39,0,0,0,6.38,6.38h28a1.28,1.28,0,0,1,0,2.55Z"/><path class="cls-7" d="M254,313.77H200.69a16.41,16.41,0,0,1-16.41-16.41H254a8.2,8.2,0,0,1,8.2,8.2h0A8.2,8.2,0,0,1,254,313.77Z"/><path class="cls-7" d="M348,526.23a1.27,1.27,0,0,1-1.1-.63l-31.44-53.89a1.28,1.28,0,0,1,2.2-1.29l31.44,53.89a1.28,1.28,0,0,1-1.1,1.92Z"/><rect class="cls-7" x="323.28" y="523.27" width="55.04" height="8.41" rx="4.21" ry="4.21"/><path class="cls-9" d="M252.22,76.22c-7.23-5.61-18.11-2.87-25.3,2.78s-12.16,13.65-18.83,19.91a51.91,51.91,0,0,1-22.47,12.36c-22.93,5.91-46.54-4.3-70-7.5-9.83-1.34-20.93-1-28.2,5.71-4.88,4.54-7.17,11.43-6.94,18.09s2.78,13.08,6.36,18.7c3.34,5.25,7.84,10.09,13.73,12.09,8.92,3,19.53-.85,27.78,3.71,5.29,2.92,8.34,8.76,9.89,14.6s1.88,11.95,3.35,17.81c4.19,16.77,19.35,31.07,36.64,31.38,0,0,39.13,14.23,35.8.68-10.19-41.46,50.8-71.51,20.22-117.94C222.84,91.32,252.22,76.22,252.22,76.22Z"/><path class="cls-9" d="M253.5,74c-8.6-6.06-20-3.2-27.85,2.78-10.41,7.93-16.47,20-28,26.74-25.69,15.13-54.91,1.31-81.72-2.27-10.33-1.38-22.25-1.14-30.33,6.41-8.44,7.89-9.26,20.71-5.4,31,3.57,9.54,10.66,19.74,21,22.51,5.81,1.55,11.83.66,17.75,1.05,7.15.47,12.26,3.89,15.19,10.46,2.7,6,3,12.79,4.26,19.21a47.07,47.07,0,0,0,5.69,15.2,44.38,44.38,0,0,0,22.78,19.18c3.68,1.32,7.44,1.29,11.13,2.16,1.83.43,3.63,1.23,5.42,1.79a104.37,104.37,0,0,0,19.1,4.39c4.26.48,11,.95,13.45-3.52,1.46-2.64.31-5.45-.14-8.18a38.8,38.8,0,0,1,0-12.3c2.58-16.24,13-30,20.42-44.32,7.53-14.57,12.2-30.64,6.37-46.69-2.85-7.85-11.16-15.56-7.42-24.31,2.74-6.42,9-11.27,14.75-14.89,1.14-.72,2.3-1.42,3.5-2,2.9-1.5.34-5.88-2.56-4.37-9,4.66-19.66,12.88-21.57,23.4-1.5,8.24,4.34,14,7.42,21a42,42,0,0,1,2.84,24.7c-2.92,15.33-12.33,28.42-19.52,42-3.53,6.65-6.78,13.62-8.48,21a49.15,49.15,0,0,0-1.29,9.9c-.09,3.84,1.16,7.47,1.24,11.21.15,7-24.73-1.17-28.53-2.39-5.68-1.83-11.65-1.84-17.14-4.34a40.32,40.32,0,0,1-21-23.56c-3.58-10.62-2.3-22.78-9.57-32s-17.63-7.17-27.87-7.86c-12.58-.85-21.05-12.51-23.75-24.09-3.31-14.19,5.1-25.9,19.51-27.15,13.79-1.2,27.83,3.56,41.16,6.41,13.71,2.92,28.06,5.07,41.87,1.49,12.72-3.29,22.45-11.06,30.83-20.87,7.75-9.08,20.78-23.64,33.82-14.44C253.61,80.3,256.14,75.9,253.5,74Z"/><path class="cls-9" d="M239,114.42s-26.4-25.27-11.23-39.31,44.55-5.71,47.74,19.38Z"/><path class="cls-2" d="M239.42,96.34a.73.73,0,0,1-1,.38c-1.6-.89-5.65-2.54-8.27,1.7s3.27,7.86,5.25,9.84c2.89,2.89,8,13,7.57,23.08-.32,7.26-6.94,22.41-6.94,22.41s20.88,11,29-.25c0,0-7.59-23.62-5.75-29.53,0-.13,11.26,2,15.84-17.5,4.31-18.33-8.8-23.88-11.85-24.89C260.66,80.73,248.37,75.49,239.42,96.34Z"/><path class="cls-10" d="M262.27,143.81c-.35.16-12.42,12.89-12.42,12.89s9.4,4.39,15.15-3.2Z"/><path class="cls-8" d="M273.08,111.38l-10-1.53s1.76,5.18,4.73,5.12S273.08,111.38,273.08,111.38Z"/><path class="cls-10" d="M237.82,99.34c-1.51-.71-3.81-.45-4.52,1.06s.44,3.71,2,4.42"/><path class="cls-10" d="M270,104.39l-1.31,5,2.66.16a.65.65,0,0,0,.62-.92Z"/><path class="cls-9" d="M268.43,80.54s-17.91,19.67-30,16.18,4.23-28.13,18.73-23.54C266.19,76,268.43,80.54,268.43,80.54Z"/><path class="cls-10" d="M259.32,124a20.94,20.94,0,0,1-11.52-5.4c-2.93-2.75,3.18,13.61,12,14.71C259.78,133.28,259.44,128.36,259.32,124Z"/><path class="cls-9" d="M263.44,96.34c-1,.51.8-2.14,2.08-2.3a2.21,2.21,0,0,1,2.58,1.73A6.9,6.9,0,0,0,263.44,96.34Z"/><path class="cls-9" d="M275.66,95.67a2.3,2.3,0,0,0-3,1.08,6.81,6.81,0,0,1,3.21.83"/><ellipse class="cls-9" cx="266.61" cy="103.14" rx="1.64" ry="0.79" transform="translate(139.32 359.1) rotate(-84.71)"/><ellipse class="cls-9" cx="272.77" cy="103.72" rx="1.56" ry="0.76" transform="translate(144.32 365.76) rotate(-84.7)"/><g class="cls-11"><circle class="cls-12" cx="256.15" cy="108.73" r="4.91" transform="translate(-5.58 14.21) rotate(-3.14)"/><path class="cls-12" d="M256.14,113.87a5.16,5.16,0,1,1,.29,0ZM251.48,109a4.67,4.67,0,1,0,1.18-3.37A4.64,4.64,0,0,0,251.48,109Z"/></g><ellipse class="cls-9" cx="274.92" cy="102.47" rx="7.51" ry="3.78" transform="translate(160.79 372.77) rotate(-87.55)"/><path class="cls-13" d="M274.68,110.82h-.12c-1.34-.06-2.52-1.05-3.31-2.81a13,13,0,0,1-1-5.74c.2-4.68,2.41-8.23,5-8.15s4.46,3.86,4.26,8.54S277.22,110.82,274.68,110.82Zm.48-15c-1.38,0-3,2.65-3.17,6.54a11.26,11.26,0,0,0,.8,5c.51,1.12,1.18,1.79,1.84,1.81,1.39.08,3-2.61,3.21-6.53s-1.26-6.73-2.64-6.79Z"/><ellipse class="cls-9" cx="264.66" cy="101.46" rx="8.51" ry="5.55" transform="translate(151.98 361.54) rotate(-87.55)"/><path class="cls-13" d="M264.46,110.81h-.2c-3.59-.15-6.22-4.38-6-9.62s3.22-9.23,6.79-9.07a5.62,5.62,0,0,1,4.51,3.07,12.78,12.78,0,0,1-.55,12.95A5.69,5.69,0,0,1,264.46,110.81Zm.41-17c-2.5,0-4.74,3.37-4.91,7.46s1.83,7.75,4.38,7.86a4,4,0,0,0,3.31-2,10.27,10.27,0,0,0,1.73-5.49h0A10.27,10.27,0,0,0,268.12,96,4,4,0,0,0,265,93.8Z"/><line class="cls-9" x1="237.08" y1="95.89" x2="259.12" y2="99.54"/><path class="cls-13" d="M259.12,100.38H259l-22-3.65a.84.84,0,1,1,.28-1.67l22,3.65a.84.84,0,0,1-.14,1.68Z"/><g class="cls-14"><path class="cls-8" d="M264.12,101.77l2.13-2.59a1.68,1.68,0,0,0-.67-2.64c-1.6-.59-3.74-.44-4.44,3.92A1.69,1.69,0,0,0,264.12,101.77Z"/><path class="cls-8" d="M274.73,101.95l1.17-2.08a1.68,1.68,0,0,0-.37-2.12c-.88-.47-2-.36-2.43,3.14C272.94,102.24,274.13,103,274.73,101.95Z"/></g><path class="cls-2" d="M262.9,145.83c1.15,1,18.11,32.51,15.84,46.09-1.53,9.11-14.06,29.23-19.85,47,0,0-27.37,1.27-44.18-6-1.38-14.22-11.79-64.16,7.09-86.23,0,0,11.6-1.58,16.36-1.39C238.15,145.31,259.28,162.4,262.9,145.83Z"/><path class="cls-2" d="M253.79,240.11c-8.8,0-26.91-.73-39.52-6.18a1.11,1.11,0,0,1-.66-.91c-.19-2-.56-4.68-1-7.82-2.67-19.43-8.22-59.87,8.34-79.23a1.11,1.11,0,0,1,.69-.38c.48-.07,11.75-1.6,16.55-1.4a1.11,1.11,0,0,1,.65.25c.12.09,11.88,9.51,18.65,7.13,2.19-.77,3.61-2.73,4.32-6a1.11,1.11,0,0,1,1.82-.59c1.62,1.45,18.54,33.06,16.19,47.1-.8,4.74-4.37,12.16-8.52,20.74-4,8.28-8.52,17.66-11.37,26.41a1.11,1.11,0,0,1-1,.76C258.65,240,256.75,240.11,253.79,240.11Zm-38-8c14.87,6.15,37.88,5.81,42.33,5.67,2.9-8.67,7.33-17.83,11.24-25.94,4.07-8.43,7.58-15.71,8.33-20.15,1.91-11.37-10.33-36.18-14.37-43.28a8.4,8.4,0,0,1-5,5.21c-7.35,2.58-18.48-5.71-20.48-7.27-4.27-.09-13.33,1.06-15.39,1.33-15.58,18.74-10.17,58.16-7.56,77.17C215.19,227.74,215.54,230.23,215.74,232.16Z"/><path class="cls-6" d="M262.9,145.83c1.15,1,18.11,32.51,15.84,46.09-1.53,9.11,4.29,26-1.5,43.8,0,0-29.76-1.12-73.06-10-1.38-14.22-1.25-57,17.62-79,0,0,11.6-1.58,16.36-1.39C238.15,145.31,259.28,162.4,262.9,145.83Z"/><g class="cls-15"><path class="cls-4" d="M213.43,228.05c3.55-29.64,7.6-60.6,25.1-85.7,1.87-2.68-2.52-5.22-4.37-2.56-18,25.84-22.14,57.75-25.79,88.26-.39,3.23,4.68,3.2,5.07,0Z"/><path class="cls-4" d="M227.64,230.66A483.71,483.71,0,0,1,244,144.81c.9-3.14-4-4.48-4.89-1.35a491.21,491.21,0,0,0-16.53,87.2c-.32,3.24,4.75,3.22,5.07,0Z"/><path class="cls-4" d="M241.92,232.1a680.85,680.85,0,0,0,9.8-86.41c.16-3.26-4.91-3.25-5.07,0A670.11,670.11,0,0,1,237,230.75c-.57,3.19,4.31,4.56,4.89,1.35Z"/><path class="cls-4" d="M260.61,236.68c4.84-30.33,2.57-60.93.09-91.37-.26-3.23-5.33-3.26-5.07,0,2.44,29.92,4.85,60.19.09,90-.51,3.19,4.37,4.56,4.89,1.35Z"/><path class="cls-4" d="M277.37,238.59a159,159,0,0,0-9.16-92.33c-1.24-3-6.15-1.66-4.89,1.35a154.36,154.36,0,0,1,9.16,89.63c-.63,3.18,4.25,4.55,4.89,1.35Z"/></g><path class="cls-2" d="M364.84,247l-23.9,1.76s-113.1-13.47-123.33-81.18c0,0-4.12-22.94,13.43-25.4s22.41,11.4,22.41,11.4c5.76,43.8,47.06,65.92,76.41,71.84l34.55,7.53c4.73,1.06,5-.45,9.75-1.28,7.34-1.3,25,6.95,26.61,7.75,2.45,1.24-23.31.56-23.31.56S358.94,238.54,364.84,247Z"/><path class="cls-2" d="M340.94,249.83h-.13a260.14,260.14,0,0,1-58.11-15.27c-39.05-15.63-61.94-38.75-66.19-66.85-.09-.48-2.17-12.57,3.52-20.43A15.46,15.46,0,0,1,230.89,141c18.24-2.55,23.56,12,23.61,12.13a1.1,1.1,0,0,1,.05.22c5.94,45.14,50.27,65.8,75.53,70.9l34.56,7.53a8.06,8.06,0,0,0,5.48-.27,24.7,24.7,0,0,1,3.85-1c8.05-1.43,27.12,7.76,27.31,7.85a1.25,1.25,0,0,1,.74,1.43c-.25,1-.47,1.86-24.57,1.23-4.48-.34-11.27.14-12.47,2.25-.4.7-.14,1.72.77,3a1.11,1.11,0,0,1-.83,1.74L341,249.82ZM235.1,143a28.15,28.15,0,0,0-3.9.28,13.32,13.32,0,0,0-9.36,5.34c-5.15,7.1-3.15,18.65-3.13,18.77,5.21,34.48,38.11,54.45,64.78,65.13A258.17,258.17,0,0,0,341,247.6L363,246a4.07,4.07,0,0,1,0-3.78c2.37-4.16,13.28-3.46,14.51-3.37,7.33.19,15.26.25,19.61.09-5.89-2.6-17.5-7.14-22.81-6.21a22.5,22.5,0,0,0-3.53.94,10.22,10.22,0,0,1-6.66.34l-34.54-7.53a115,115,0,0,1-47.51-21.94c-16.83-13.44-27.12-31-29.75-50.72C251.92,152.63,247.84,143,235.1,143Z"/><path class="cls-6" d="M288.48,206.68c-16.83-11.89-24.47-27.45-35-53.14,0,0-4.86-13.86-22.41-11.4s-13.43,25.4-13.43,25.4c3.44,22.78,7.5,35.95,26,48Z"/><g class="cls-16"><path class="cls-4" d="M221.37,145.86a89,89,0,0,0,27.39,70.47c2.36,2.24,6-1.33,3.58-3.58a84.14,84.14,0,0,1-25.9-66.89c.23-3.25-4.83-3.24-5.07,0Z"/><path class="cls-4" d="M230,142.5a118.17,118.17,0,0,0,32.48,71.88c2.26,2.36,5.84-1.23,3.58-3.58a112.63,112.63,0,0,1-31-68.3c-.27-3.22-5.34-3.25-5.07,0Z"/><path class="cls-4" d="M240.92,143.77c3.3,14.05,6.73,28.45,14.29,40.92,6.34,10.47,14.95,20.84,25.39,27.39,2.77,1.74,5.32-2.64,2.56-4.37-22.78-14.29-31.56-40.59-37.35-65.29-.74-3.17-5.63-1.83-4.89,1.35Z"/></g><path class="cls-2" d="M336.09,475.53c.27,12-2.41,41.25-2.41,41.25l50.78,3.75c-6-3.93-26.76-20.83-26.76-20.83l-7.08-23S336,475.74,336.09,475.53Z"/><path class="cls-3" d="M357.83,499.74,385.21,520a1.61,1.61,0,0,1-.87,2.92c-12.47.32-46.07.95-54.9,1.08a1.6,1.6,0,0,1-1.54-2.06c1.68-5.75,5-21.89,6.46-26.56.23-.74,8.35,12.54,12,11C349.46,505.11,357.57,499.78,357.83,499.74Z"/><path class="cls-4" d="M356.45,512.71a3.92,3.92,0,0,1-2.82-6.64l5.45-5.64.78.76-5.45,5.64a2.83,2.83,0,0,0,4.08,3.93l6.12-6.34.78.76-6.11,6.34A3.91,3.91,0,0,1,356.45,512.71Z"/><path class="cls-3" d="M331.53,476.28l2.83,19.11s6.16,9.07,7.32,9.13-1.91-27.5-1.91-27.5Z"/><path class="cls-17" d="M214,232.55s-22.46,35.19-19.47,47.92c5.29,22.5,38.19,32.2,40.44,35.94s60.65,76.38,97.34,172.22l31.45-1.5s-26.21-130.29-37.44-148.26c-38.4-61.43-65.89-99.59-65.89-99.59Z"/><path class="cls-5" d="M214,232.55s-22.46,35.19-19.47,47.92c5.29,22.5,38.19,32.2,40.44,35.94s60.65,76.38,97.34,172.22l31.45-1.5s-30.64-30.7-45.24-58.78S260.08,309.3,235.93,296.94,214,232.55,214,232.55Z"/><path class="cls-9" d="M235.3,112.82c6.26,14.06,16.76,25.71,25.7,38.24s16.65,27,15.89,42.42q-13.8-21.09-28.21-41.78c-2.87-4.12-6.08-8.47-10.84-10.05-4-1.33-8.52-.4-12.27,1.59s-6.88,4.93-10,7.84l-6.13,5.78c2.67-16.72,19.53-27.57,25.49-43.42"/><path class="cls-9" d="M233.11,114.09c12.25,26.76,42.24,47.55,41.25,79.39l4.72-1.28q-8.09-12.36-16.39-24.59c-5.13-7.55-9.93-15.82-16-22.66-4.82-5.44-11.45-7.79-18.52-5.53-8.23,2.63-14.39,9.9-20.48,15.64l4.23,2.46c3.1-17,19.26-27.68,25.49-43.42,1.2-3-3.7-4.35-4.89-1.35-6.27,15.83-22.34,26.08-25.49,43.42a2.56,2.56,0,0,0,4.23,2.46c5.48-5.17,11.37-12.52,18.92-14.56,8.7-2.35,13.45,4.8,17.78,11q13.63,19.63,26.72,39.64a2.55,2.55,0,0,0,4.72-1.28c1-33.17-29.21-54.14-41.94-81.94-1.36-3-5.72-.39-4.37,2.56Z"/></svg>