<svg id="Layer_1" data-name="Layer 1" xmlns="http://www.w3.org/2000/svg" viewBox="0 0 1050 195"><defs><style>.cls-1{fill:#1d8dc4;}</style></defs><title>LiteSeoul_mainLogo</title><path class="cls-1" d="M0,17.88H34.46V161.29H104.3v28.87H0Z"/><path class="cls-1" d="M128.28,20.2c0-11.17,8.61-18.63,20.49-18.63C160.41,1.58,169,9,169,20.2c0,10.71-8.61,18.63-20.26,18.63C136.9,38.83,128.28,30.91,128.28,20.2Zm3.26,39.58h34V190.16h-34Z"/><path class="cls-1" d="M207.2,144.53V86.79H188.81V61.41l20-1.63,4-34.92h28.64V59.78h32.13v27H241.43v57.74c0,14.9,6.05,21.88,17.69,21.88a38.09,38.09,0,0,0,12.81-2.79l5.59,24.91A84.26,84.26,0,0,1,250,193.42C219.08,193.42,207.2,173.86,207.2,144.53Z"/><path class="cls-1" d="M287.53,125.21c0-42.37,29.57-68.68,60.77-68.68,35.85,0,54.48,26.31,54.48,62.4,0,6.29-.7,12.57-1.63,15.6H320.82c2.79,21.42,16.76,32.59,36.09,32.59,10.71,0,20-3.26,29.33-9.08l11.64,21a82.24,82.24,0,0,1-45.63,14.43C315.93,193.42,287.53,168,287.53,125.21Zm85.91-13.27c0-17.69-7.92-28.87-24.68-28.87-13.74,0-25.84,9.78-28.4,28.87Z"/><path class="cls-1" d="M417,168.28l19.79-23.75c12.34,11.41,28.64,19.09,43.77,19.09,17.93,0,27.47-7.68,27.47-19.79,0-12.81-10.48-16.76-25.84-23.28l-23-9.78c-17.46-7.22-34.92-21.19-34.92-46.33,0-28.17,24.68-49.82,59.6-49.82,20,0,40,7.92,54,22.12L520.35,58.39c-10.94-9.08-22.35-14.2-36.55-14.2-15.13,0-24.91,6.75-24.91,18.16,0,12.34,12.34,16.76,27,22.58l22.58,9.55c21,8.61,34.69,21.88,34.69,46.8,0,28.17-23.51,52.15-63.33,52.15A91.81,91.81,0,0,1,417,168.28Z"/><path class="cls-1" d="M562.72,125.21c0-42.37,29.57-68.68,60.77-68.68,35.85,0,54.48,26.31,54.48,62.4,0,6.29-.7,12.57-1.63,15.6H596c2.79,21.42,16.76,32.59,36.09,32.59,10.71,0,20-3.26,29.33-9.08l11.64,21a82.24,82.24,0,0,1-45.63,14.43C591.12,193.42,562.72,168,562.72,125.21Zm85.91-13.27c0-17.69-7.92-28.87-24.68-28.87-13.74,0-25.84,9.78-28.4,28.87Z"/><path class="cls-1" d="M698,125.21c0-43.54,30-68.68,62.63-68.68s62.63,25.14,62.63,68.68c0,43.07-30,68.22-62.63,68.22S698,168.28,698,125.21Zm90.33,0c0-24.68-10-40.74-27.71-40.74s-27.7,16.06-27.7,40.74c0,24.45,10,40.28,27.7,40.28S788.32,149.65,788.32,125.21Z"/><path class="cls-1" d="M850.48,141.27V59.78H884.7v77.06c0,20.26,5.59,27.24,18.16,27.24,10.71,0,17.69-4.66,26.54-16.3v-88h34.22V190.16H935.69l-2.56-18.63h-.93c-11.17,13.27-23.75,21.89-41.67,21.89C862.58,193.42,850.48,173.86,850.48,141.27Z"/><path class="cls-1" d="M1000.18,153.61V4.37h34V155.24c0,7.68,3.72,10.24,7,10.24a19.27,19.27,0,0,0,4.66-.47l4.19,25.38c-4,1.63-9.78,3-17.69,3C1008.56,193.42,1000.18,177.82,1000.18,153.61Z"/></svg>