<?xml version="1.0" encoding="utf-8"?>
<!-- Generator: Adobe Illustrator 21.0.2, SVG Export Plug-In . SVG Version: 6.00 Build 0)  -->
<svg version="1.1" id="Layer_1" xmlns="http://www.w3.org/2000/svg" xmlns:xlink="http://www.w3.org/1999/xlink" x="0px" y="0px"
	 viewBox="0 0 500 500" style="enable-background:new 0 0 500 500;" xml:space="preserve">
<style type="text/css">
	.st0{fill:#01AC76;}
	.st1{fill:none;stroke:#05754F;stroke-width:5.5132;stroke-linecap:round;stroke-linejoin:round;stroke-miterlimit:10;}
	.st2{fill:#0A5C39;}
	.st3{opacity:0.4;}
	.st4{fill:#1D8DC4;}
</style>
<g>
	<path class="st0" d="M268.5,314.3c22.4-9.6,47.3-10.6,71.6-11.5c-8.1,16.6-25.4,26.9-43.2,31.6c-17.8,4.8-36.4,5-54.8,6.8
		c-7.8,0.8-15.8,2-22.2,6.3C236.4,336.5,249.7,322.4,268.5,314.3z"/>
	<path class="st0" d="M268,270.8c20.2-13.6,44.5-19.2,68.2-24.6c-4.8,17.8-20,31.1-36.6,39.1c-16.6,8-34.9,11.7-52.5,16.9
		c-7.5,2.2-15.1,4.9-20.7,10.4C240.6,298.5,251.1,282.1,268,270.8z"/>
	<path class="st0" d="M275,217.4c18.6-15.7,42.2-23.8,65.2-31.7c-2.9,18.2-16.6,33.1-32.2,42.8c-15.6,9.7-33.4,15.3-50.5,22.3
		c-7.2,3-14.5,6.5-19.5,12.5C250.7,247.9,259.4,230.5,275,217.4z"/>
	<path class="st0" d="M190.5,296.6c-16-18.3-38.1-30-59.6-41.4c0.1,18.4,11.3,35.2,25.3,47.2c14,12,30.7,20.2,46.4,29.8
		c6.7,4.1,13.4,8.6,17.3,15.3C209.8,330.4,203.9,311.9,190.5,296.6z"/>
	<path class="st0" d="M207,253.3c-12.3-21-31.8-36.6-50.9-51.7c-3.3,18.1,4.5,36.7,16,51.1c11.5,14.4,26.4,25.6,40.1,37.9
		c5.8,5.2,11.5,10.9,14.2,18.3C219.7,290.1,217.3,270.9,207,253.3z"/>
	<path class="st0" d="M238.3,204.9c-5.3-23.7-19.2-44.5-32.7-64.7c-8.7,16.2-6.8,36.4-0.3,53.6s17.4,32.4,26.6,48.3
		c3.9,6.7,7.7,13.9,7.9,21.7C239.2,243.8,242.8,224.7,238.3,204.9z"/>
	<path class="st0" d="M293.6,155.3c8.2-22.9,7.7-47.9,7.1-72.2c-16,9.1-25.3,27-28.9,45.1c-3.7,18-2.7,36.7-3.4,55.1
		c-0.3,7.8-1,15.9-4.9,22.6C273.5,188.6,286.8,174.5,293.6,155.3z"/>
	<path class="st1" d="M216,426.6c-3.3-81.7,15.6-164.3,54-236.5"/>
	<path class="st2" d="M412.7,453.7c-41-24-105.1-39.4-177.1-39.4c-72,0-136.1,15.4-177.1,39.4H412.7z"/>
	<g class="st3">
		<g>
			<path class="st4" d="M475,95.5c-0.9-11.6-10-21-21.6-22.1c-8.5-16.1-25.4-27.1-44.9-27.1c-16.5,0-31.1,7.9-40.4,20.1
				c-1-0.1-2-0.2-3-0.2c-19,0-35.1,12.2-41,29.2H475z"/>
			<path class="st4" d="M143,358.5c-0.7-9.1-7.9-16.4-16.9-17.3C119.4,328.6,106.2,320,91,320c-12.9,0-24.4,6.2-31.6,15.8
				c-0.8-0.1-1.5-0.1-2.3-0.1c-14.9,0-27.4,9.6-32,22.8H143z"/>
		</g>
	</g>
</g>
</svg>
