<svg id="Layer_1" data-name="Layer 1" xmlns="http://www.w3.org/2000/svg" viewBox="0 0 500 500"><defs><style>.cls-1{fill:#ffc709;opacity:0.3;}.cls-2{fill:#0e8d45;}.cls-3,.cls-4{fill:none;stroke:#2d5d44;stroke-linecap:round;stroke-miterlimit:10;}.cls-3{stroke-width:15.95px;}.cls-4{stroke-width:11.96px;}.cls-5{fill:#31a67f;}</style></defs><title>main_wood</title><path class="cls-1" d="M500,394.52a248.6,248.6,0,0,1-19.95,98H19.95A248.59,248.59,0,0,1,0,394.52c0-138.09,111.91-250,250-250S500,256.43,500,394.52Z"/><path class="cls-2" d="M368.39,243.49c0-66-53.49-236-119.46-236s-119.46,170-119.46,236a119.46,119.46,0,1,0,238.93,0Z"/><line class="cls-3" x1="250" y1="183.15" x2="250" y2="471.65"/><line class="cls-3" x1="179.75" y1="205.25" x2="250" y2="269.78"/><line class="cls-3" x1="301.9" y1="173.41" x2="250" y2="243.92"/><line class="cls-4" x1="76.88" y1="387.21" x2="76.88" y2="445.61"/><path class="cls-5" d="M134.05,341.36s-24.63-4-43.15,12.68a51.13,51.13,0,0,0-14,21.8,51.12,51.12,0,0,0-14-21.8c-18.52-16.7-43.15-12.68-43.15-12.68s-1.48,24.91,17,41.62c14.46,13,32.77,13.6,40.12,13.22,7.35.38,25.66-.18,40.12-13.22C135.53,366.27,134.05,341.36,134.05,341.36Z"/><line class="cls-4" x1="423.13" y1="387.21" x2="423.13" y2="445.61"/><path class="cls-5" d="M366,341.36s24.63-4,43.15,12.68a51.13,51.13,0,0,1,14,21.8,51.13,51.13,0,0,1,14-21.8c18.52-16.7,43.15-12.68,43.15-12.68s1.48,24.91-17,41.62c-14.46,13-32.77,13.6-40.12,13.22-7.35.38-25.66-.18-40.12-13.22C364.48,366.27,366,341.36,366,341.36Z"/></svg>