<svg id="Layer_1" data-name="Layer 1" xmlns="http://www.w3.org/2000/svg" viewBox="0 0 500 500"><defs><style>.cls-1{fill:#1d8dc4;}</style></defs><title>main_recycle</title><path class="cls-1" d="M121.18,128.08S143,79.91,166.34,56s33.8-21.54,48.88-12.33c17.56,10.72,27.36,30.86,27.36,30.86l-60.42,92.84Z"/><path class="cls-1" d="M203.89,27.5h94.94s38.26,18.5,51,67.83l28.92-15.44-33.11,87.5-83.19-31.46,28.86-11.3S255.61,47.54,203.89,27.5Z"/><path class="cls-1" d="M450.76,202.62S480,245.85,488.7,279.44s2,42.56-12.48,52.88c-16.84,12-37.79,12.19-37.79,12.19L390.58,243.36Z"/><path class="cls-1" d="M494.65,328.84l-43.77,91.65s-32.73,28.4-78.84,18l-.74,35-56.1-72.31,64-65.8-4.09,33.08S454.46,369.53,494.65,328.84Z"/><path class="cls-1" d="M179.92,446.74s-49.07,5.57-80.11-3.25S65.06,423.81,64.2,405c-1-21.88,9.46-41.63,9.46-41.63l104.4,6.26Z"/><path class="cls-1" d="M57.64,424.07,7.12,336.63s-6-45.08,25.64-83.08L5.35,235.13l85.71-16.07,19.78,93.37L86.69,291.85S45.71,365.77,57.64,424.07Z"/></svg>