<svg id="Layer_1" data-name="Layer 1" xmlns="http://www.w3.org/2000/svg" viewBox="0 0 841.89 595.28"><defs><style>.cls-1{opacity:0.2;}.cls-2,.cls-3,.cls-4{fill:none;stroke-linecap:round;stroke-linejoin:round;stroke-width:3.11px;}.cls-2{stroke:#b4dfd2;}.cls-3{stroke:#de4b6d;}.cls-4{stroke:#fbae44;}</style></defs><title>main_background</title><g class="cls-1"><path class="cls-2" d="M290.71,190.05c12.09,26.71,18.52,56.63,21.71,84.39a381.28,381.28,0,0,1,2.45,41.83c0,3.34,1.67,15.62-1.25,17.66-4,2.82-18.94-4-23-5.52-30.69-11.85-57.79-35.31-79.11-59.91A220.76,220.76,0,0,1,160,155.06c-1.29-9.3-2-18.92.53-28,9.85-35.71,56.73-13.08,77-.68C262,141.38,279,164.21,290.71,190.05Z"/><path class="cls-2" d="M300.23,313.67A514.16,514.16,0,0,1,184.75,139.34c-3.79-9.49-7.29-19.09-10.79-28.7"/><path class="cls-2" d="M575.24,371.95c20.1-6.39,42-8.47,62.12-8.41a274.31,274.31,0,0,1,30.09,1.77c2.39.27,11.3.12,12.52,2.38,1.67,3.11-4.42,13.2-5.88,16C663,404.58,644,422,624.63,435.13a158.83,158.83,0,0,1-85.39,27.26c-6.76.14-13.68-.18-19.94-2.73-24.69-10-4.57-41.63,6-55.08C538,388.35,555.79,378.13,575.24,371.95Z"/><path class="cls-2" d="M664.37,375.54a369.91,369.91,0,0,1-134.28,67.84c-7.1,1.91-14.26,3.6-21.41,5.29"/><path class="cls-2" d="M254.89,413.51c11.57,27.33-46.64,19.62-57.06,18.84q-12.27-.91-24.46-2.68c-7-1-17.93-1.06-24.22-4.39,15.73,8.33,31.54,16.71,45.72,27.47s26.78,24.11,34.28,40.25c2.26,4.86,3.92,11,.73,15.27-4.28,5.77-13.31,3.7-19.82.64a165,165,0,0,1-64.81-54.81c9.35,26.78,16.46,56.87,5.21,82.91-4.15,9.6-13.31,19.18-23.46,16.66-9.4-2.34-13.36-13.45-14.55-23.06-3.07-24.8,2-49.81,7.08-74.28a94.89,94.89,0,0,1-64.85,25.13c-4.69,0-9.69-.57-13.32-3.54-4.07-3.33-5.44-9.18-4.44-14.34s4-9.71,7.52-13.64c17.12-19.35,44.3-25.7,69.75-30.11a123.41,123.41,0,0,1-70.71-38.5c-2.82-3.1-5.65-7.11-4.5-11.14,1.35-4.75,7.25-6.34,12.18-6.5,27.7-.91,51.91,17.34,73.53,34.67-4.18-22-8.29-45.25-1-66.44,4.75-13.75,25.8-32.74,37.44-14.47,9.87,15.49,3.68,35.8-1.36,51.82-3.76,12-8.22,23.71-12.68,35.44a107,107,0,0,1,91.35-5C244.8,402.29,252.19,407.14,254.89,413.51Z"/><path class="cls-2" d="M649.14,153.63c29.32-12.41,61.16-17.49,92.72-21.63-12.28,28.19-39.47,46.61-66,62.13-24.35,14.24-41,19-69.75,31.92,29.72-10,49.13-18.29,78.6-23.77s60.33-6.16,89,2.49c-15.91,24.36-47.53,32.33-76.36,36.24a610.47,610.47,0,0,1-86.45,5.54c28.19,1,56.74,2.63,83.55,11.41s52,25.51,65.55,50.27c-48.78,8-98.23-6.28-141.7-27.89C603.59,273,587,264.85,577.37,251c-12.17-17.49-2.19-37.44,9.88-51.84a163.19,163.19,0,0,1,49.41-39.63Q642.78,156.32,649.14,153.63Z"/><path class="cls-3" d="M601.93,70.32a19.74,19.74,0,0,1-2,10.78c-2.71,5.77-7.63,10.27-13.12,13.5,2.09-1.23,8.51,11.12,9,12.59,2,5.4,2.31,10.67-.28,15.89-5.26,10.6-15.86,11.74-26.74,10.07a19.48,19.48,0,0,1-4.35,12.68c-4.54,5.81-10.89,9.87-18.17,10.3a28.42,28.42,0,0,1-8.44-.46c-8.19-2-14-10.94-12.51-19.24-8.69,5.57-20.18,1-25.15-7.51a21.51,21.51,0,0,1,4.47-26.32c-5.64-1.76-9.08-7.95-9-13.85s2.93-11.46,6.58-16.11c5.53-7,15.93-12.7,23.07-7.28-.74-10.43,4.4-23.08,14.8-24.1C545.8,40.7,551.3,44,554.9,48.4s5.49,9.79,7.76,14.76c-.42-.91,12.56-5.75,13.88-6.08a24.68,24.68,0,0,1,14,.08C597.32,59.46,601.21,64.42,601.93,70.32Z"/><path class="cls-2" d="M543.65,80.74A22.8,22.8,0,0,0,527.82,99.5a20.33,20.33,0,0,0,30.05,20.12c7.29-4,14.19-15.57,11.62-24C566.2,84.82,554.67,77.55,543.65,80.74Z"/><path class="cls-3" d="M362.39,518.58a16.59,16.59,0,0,1-9-2.08c-4.73-2.51-8.31-6.83-10.79-11.57.95,1.81-9.68,6.68-10.94,7.07-4.61,1.42-9,1.5-13.32-.89-8.68-4.85-9.2-13.8-7.35-22.86a16.37,16.37,0,0,1-10.46-4.17c-4.69-4-7.83-9.55-7.9-15.68a23.9,23.9,0,0,1,.74-7.07,14.6,14.6,0,0,1,16.66-9.71c-4.32-7.52,0-17,7.34-20.8a18.08,18.08,0,0,1,21.91,4.83c1.71-4.66,7-7.29,12-7s9.5,2.93,13.25,6.19c5.69,4.94,10,13.9,5.16,19.66,8.78-.19,19.19,4.64,19.62,13.42.23,4.78-2.74,9.26-6.6,12.1s-8.44,4.2-12.71,5.91c.78-.31,4.31,10.78,4.54,11.9a20.74,20.74,0,0,1-.64,11.73C371.7,515.15,367.37,518.21,362.39,518.58Z"/><path class="cls-2" d="M356,469.23A19.16,19.16,0,0,0,341,455.17a17.08,17.08,0,0,0-18.12,24.4c3.09,6.28,12.48,12.55,19.67,10.74C351.69,488,358.27,478.61,356,469.23Z"/><path class="cls-2" d="M344,98.66c-3.17-3.41-6.45-6.68-9.85-9.7-9.43-8.37-23.27-12.84-34.36-4.64a29.51,29.51,0,0,0-9.88,14.19c-7.28,20.93,5.94,34.78,24.76,41a229.17,229.17,0,0,0,74.69,11.4s-17-17.77-19.83-21.32C361.34,119.45,353.06,108.44,344,98.66Z"/><path class="cls-2" d="M788.93,121.32c3.85,2.62,7.77,5.08,11.76,7.27,11.05,6.07,25.54,7.34,34.53-3.12a29.51,29.51,0,0,0,6.48-16c2.44-22-13.52-32.59-33.25-34.43a229.17,229.17,0,0,0-75.36,5.49S753.57,94,757.17,96.87C767.38,104.91,777.9,113.81,788.93,121.32Z"/><ellipse class="cls-2" cx="765.18" cy="428.48" rx="33.6" ry="4.76" transform="translate(-111.8 432.07) rotate(-29.48)"/><path class="cls-4" d="M764.93,483.37c3-4.92,3.93-10.87,4.14-16.65L781,470.15c10.34,3,21,6,31.69,4.63s21.43-8.08,24-18.52c3-12-6.05-24.37-17.38-29.29A57.16,57.16,0,0,0,782,423.71c-4.13,2.81-9,5.87-14.44,8.92-4.3,2.43-8.45,4.6-12.26,6.44a66.7,66.7,0,0,0-14,20.62c-2.55,5.86-4.33,12.34-3.14,18.62s6,12.19,12.38,13C756.26,491.95,761.88,488.29,764.93,483.37Z"/><path class="cls-4" d="M762.84,424.34c6.22-3.52,12.13-6.5,17.14-8.71A57.08,57.08,0,0,0,797,381.37c1.62-12.24-4.34-26.35-16.14-30-10.28-3.17-21.62,2.56-28.25,11s-9.58,19.16-12.37,29.54l-3.23,12c-5.06-2.81-10.61-5.12-16.4-5s-11.82,3-14.19,8.29c-2.62,5.83,0,13,4.71,17.29s11.23,6.08,17.57,6.91a66.84,66.84,0,0,0,24.31-1.2C756.07,428.29,759.35,426.32,762.84,424.34Z"/><ellipse class="cls-2" cx="58.18" cy="124.12" rx="4.76" ry="33.6" transform="matrix(0.3, -0.95, 0.95, 0.3, -77.67, 142.5)"/><path class="cls-4" d="M17.93,161.45c5.67-1.13,10.62-4.55,15-8.36l5.66,11.05c4.9,9.57,10,19.41,18.27,26.3s20.55,10.13,29.93,4.88c10.78-6,13.66-21.07,9.51-32.7a57.16,57.16,0,0,0-23.16-29.52c-4.88-1.1-10.47-2.6-16.38-4.45-4.71-1.48-9.13-3-13.08-4.55A66.69,66.69,0,0,0,19.06,128c-6,2.14-12,5.27-15.74,10.43s-4.77,12.74-1,17.89C5.75,161,12.26,162.58,17.93,161.45Z"/><path class="cls-4" d="M59.6,119.59c6.82,2.14,13,4.42,18.07,6.56a57.09,57.09,0,0,0,36.67-11c10-7.18,16.27-21.18,10.87-32.28-4.71-9.67-16.65-14-27.36-13.09s-20.53,6.1-30,11.16l-11,5.84c-1.41-5.61-3.52-11.24-7.53-15.41s-10.28-6.57-15.75-4.69c-6,2.07-9.54,8.87-9.4,15.26s3.24,12.36,7,17.55a66.84,66.84,0,0,0,17.49,16.93C52.1,117.34,55.78,118.39,59.6,119.59Z"/><path class="cls-2" d="M808,280.71c-11.85-2.18-24.37-4.68-33.24-12.83-3.68-3.38-6.66-7.68-11.12-9.92,8.9.93,17.94.28,26.28,4.22a37.79,37.79,0,0,1,10.76,7.62C802,271.11,807.2,280.56,808,280.71Z"/><path class="cls-2" d="M681.88,106.54c-11.09-4.7-22.77-9.88-29.65-19.76-2.85-4.1-4.83-8.95-8.7-12.11,8.48,2.84,17.45,4.18,24.73,9.84a37.79,37.79,0,0,1,8.84,9.78C678.08,95.86,681.12,106.22,681.88,106.54Z"/><path class="cls-2" d="M569.88,290.83c7.8,9.18,15.93,19,17.64,31,.71,4.94.31,10.16,2.35,14.72-6.31-6.34-13.73-11.55-17.7-19.89a37.78,37.78,0,0,1-3.52-12.71C568.48,302.08,570.41,291.46,569.88,290.83Z"/><path class="cls-2" d="M155.75,259.54c-11.2-4.43-23-9.32-30.12-19-3-4-5-8.83-9-11.89,8.55,2.63,17.54,3.75,25,9.24a37.78,37.78,0,0,1,9.07,9.56C151.69,249,155,259.23,155.75,259.54Z"/><path class="cls-2" d="M346.06,381.75c-11.47,3.68-23.69,7.4-35.36,4.41-4.84-1.24-9.5-3.62-14.49-3.48,8.28-3.39,15.94-8.24,25.16-8.71a37.78,37.78,0,0,1,13.08,1.63C336.21,376.14,345.27,382,346.06,381.75Z"/><path class="cls-2" d="M237.1,90.83c-10.86-5.22-22.28-10.93-28.69-21.13-2.66-4.23-4.4-9.16-8.12-12.5,8.34,3.24,17.23,5,24.25,11a37.78,37.78,0,0,1,8.37,10.18C233.81,80,236.35,90.47,237.1,90.83Z"/><path class="cls-2" d="M672.78,442.44c-4.3,11.25-9,23.11-18.68,30.34-4,3-8.77,5.15-11.78,9.13,2.53-8.58,3.54-17.59,8.94-25.07a37.78,37.78,0,0,1,9.46-9.19C662.24,446.61,672.49,443.21,672.78,442.44Z"/></g></svg>