<svg id="Layer_1" data-name="Layer 1" xmlns="http://www.w3.org/2000/svg" xmlns:xlink="http://www.w3.org/1999/xlink" viewBox="0 0 450 320"><defs><style>.cls-1{fill:#acb5cc;}.cls-2{fill:#9aa7c0;}.cls-3{fill:#1d8dc4;opacity:0.05;}.cls-11,.cls-4,.cls-8{fill:none;}.cls-4{stroke:#1d8dc4;stroke-miterlimit:10;stroke-width:0.73px;}.cls-5{fill:#fab6a4;}.cls-6{fill:#31a67f;}.cls-7{fill:#40322d;}.cls-11,.cls-8{stroke:#40322d;stroke-linecap:round;stroke-linejoin:round;}.cls-8{stroke-width:0.54px;}.cls-9{fill:#ffefe3;}.cls-10{fill:#3a5daa;}.cls-11{stroke-width:0.51px;}.cls-12{clip-path:url(#clip-path);}.cls-13{fill:#8a92a9;}.cls-14{clip-path:url(#clip-path-2);}.cls-15{clip-path:url(#clip-path-3);}.cls-16{clip-path:url(#clip-path-4);}.cls-17{fill:#b36c5c;}.cls-18{fill:#c17c68;}</style><clipPath id="clip-path"><path id="_Clipping_Path_" data-name="&lt;Clipping Path&gt;" class="cls-1" d="M165.71,122.72c-6.38-3-7.41-5.68-7.41-5.68l-2.56,2.21-.3.26-2.56,2.21s2.51,1.42,4.52,8.16c.21.71.38,1.43.55,2.16.31,1.36,1.59,5.42,6.64,11,4.48,4.92,10.77,12.35,14,16.18a3.21,3.21,0,0,0,4.55.36l3.63-3.13.87-.75,3.63-3.13a3.21,3.21,0,0,0,.31-4.56c-3.32-3.75-9.74-11.07-13.94-16.22-4.74-5.81-8.56-7.67-9.86-8.18C167.07,123.31,166.38,123,165.71,122.72Z"/></clipPath><clipPath id="clip-path-2"><path id="_Clipping_Path_2" data-name="&lt;Clipping Path&gt;" class="cls-2" d="M165.07,158c-1.51,6.88-3.91,8.48-3.91,8.48l2.71,2,.32.23,2.71,2s.83-2.76,7-6.21c.65-.36,1.31-.69,2-1,1.26-.6,4.93-2.74,9.23-8.89,3.81-5.45,9.67-13.22,12.7-17.21a3.21,3.21,0,0,0-.65-4.52L193.3,130l-.92-.68-3.85-2.85a3.21,3.21,0,0,0-4.51.7c-2.93,4.07-8.65,11.94-12.75,17.18-4.62,5.9-5.6,10-5.81,11.42C165.35,156.53,165.23,157.25,165.07,158Z"/></clipPath><clipPath id="clip-path-3"><path id="_Clipping_Path_3" data-name="&lt;Clipping Path&gt;" class="cls-1" d="M244.94,133.67c2.38-6.63,5-7.91,5-7.91l-2.44-2.34-.28-.27-2.44-2.34s-1.17,2.63-7.7,5.27c-.69.28-1.39.52-2.1.75-1.33.43-5.24,2.09-10.29,7.63-4.48,4.92-11.28,11.88-14.8,15.45a3.21,3.21,0,0,0,.06,4.57l3.45,3.32.83.8,3.45,3.32a3.21,3.21,0,0,0,4.57-.12c3.43-3.66,10.11-10.73,14.85-15.4,5.34-5.26,6.84-9.24,7.22-10.59C244.48,135.07,244.69,134.37,244.94,133.67Z"/></clipPath><clipPath id="clip-path-4"><rect id="_Rectangle_" data-name="&lt;Rectangle&gt;" class="cls-1" x="193.54" y="123.43" width="21" height="27.88" rx="3.72" ry="3.72" transform="translate(56.15 -59.18) rotate(19.09)"/></clipPath></defs><title>mypage_moxman</title><path class="cls-3" d="M450,228a223.74,223.74,0,0,1-18,88.2H18A223.73,223.73,0,0,1,0,228C0,103.75,100.72,3,225,3S450,103.75,450,228Z"/><path class="cls-4" d="M134.19,230.83h0l0-.06-.28-.4c-8-10.48-5.5-25.83-4.8-29.31,0-.21.09-.42.13-.63l0-.1h0a24.34,24.34,0,1,0-47.8,0h0l0,.1c0,.21.09.42.13.63.7,3.47,3.18,18.83-4.8,29.31l-.28.39,0,.07h0a34.68,34.68,0,1,0,57.74,0Z"/><line class="cls-4" x1="105.94" y1="199.63" x2="105.94" y2="316.02"/><line class="cls-4" x1="87.4" y1="235.23" x2="105.94" y2="264.44"/><line class="cls-4" x1="118.26" y1="216.22" x2="105.94" y2="232.48"/><path class="cls-4" d="M367.58,234.2h0l0,0-.2-.28c-5.73-7.52-3.95-18.53-3.44-21,0-.15.07-.3.1-.45l0-.07h0a17.45,17.45,0,1,0-34.28,0h0l0,.07c0,.15.06.3.1.45.5,2.49,2.28,13.5-3.45,21l-.2.28,0,0h0a24.88,24.88,0,1,0,41.41,0Z"/><line class="cls-4" x1="347.32" y1="211.83" x2="347.32" y2="296.22"/><line class="cls-4" x1="334.02" y1="237.36" x2="347.32" y2="258.31"/><line class="cls-4" x1="356.16" y1="223.73" x2="347.32" y2="235.38"/><path class="cls-4" d="M385.79,316.23s-2.58-39.63-56-30.19-53.43,21.39-77.25,5.66-47.64-35.85-72.1,5.66c0,0-5.79,11.32-17.38,7.55s-55.36-26.42-70.17,11.32Z"/><line class="cls-4" x1="56.25" y1="316.23" x2="393.75" y2="316.23"/><line class="cls-4" x1="308.8" y1="135.07" x2="388.44" y2="135.07"/><path class="cls-4" d="M320.66,135.07s-1.36-8.09,5.59-11.63,12.81,2.73,12.81,2.73,3.23-14.38,18.13-13.93a15.06,15.06,0,0,1,6.26,1.53c2.87,1.42,6.79,4.19,7.51,8.91,0,0,16.34-5.25,17.48,12.39"/><path class="cls-4" d="M103.68,91.17h58.69A10.23,10.23,0,0,0,153,82.26s-4.46-.61-8.6,3.53c0,0-.92-13.52-12-14.9a12.21,12.21,0,0,0-12.14,6S105.68,74.88,103.68,91.17Z"/><path class="cls-4" d="M120.27,76.88s4.81.2,8,5.65"/><line class="cls-4" x1="120.27" y1="91.17" x2="93.69" y2="91.17"/><path class="cls-5" d="M211.86,122.19l-20.22,24.47a8.59,8.59,0,0,0,1.62,12.55h0a8.59,8.59,0,0,0,11.19-1.11l21.46-23.32Z"/><path class="cls-6" d="M205.53,125.83l11.7-13.13a10.77,10.77,0,0,1,12.57-.82h0a10.77,10.77,0,0,1,3.42,14.82l-7.83,13.06Z"/><polygon class="cls-6" points="222.2 110.46 242.34 107.01 270.59 111.97 261.82 164.73 220.86 163.95 222.2 110.46"/><line class="cls-6" x1="221.9" y1="125" x2="221.56" y2="135.87"/><path class="cls-7" d="M228.07,75.3s-6.06,2-.45,10.77l3.23-10.87Z"/><path class="cls-7" d="M233.41,88.34A4.25,4.25,0,0,1,229.63,93a4.21,4.21,0,0,1-4.51-3.91,4.25,4.25,0,0,1,3.78-4.65A4.21,4.21,0,0,1,233.41,88.34Z"/><path class="cls-5" d="M235.8,97.62l.12,10.48c.06,3.87,2.49,5.08,6.18,5h0c3.15-.09,6.58-1.68,6.38-5.09l-1.13-16Z"/><path class="cls-7" d="M235.91,104.95s9,.59,11.59-9.57c.82-3.2-11.74,1.11-11.74,1.11Z"/><path class="cls-5" d="M239,101.72h0c-5.86.12-10.78-4.55-11-9.49l-.49-10.33a11.35,11.35,0,0,1,10.13-12.06h0c6.12-.55,12.59,4,13.13,10.35l.29,8.05A12.89,12.89,0,0,1,239,101.72Z"/><path class="cls-7" d="M248,86.88s1.5-9.47-3.53-11.16c0,0-17.5,5.89-20.28-1.12s4.55-13.5,15.56-6.91c8.3,5,10.49,6.89,10.49,6.89L252,84Z"/><path class="cls-7" d="M228,72.28S264.36,59,251.46,85.61l-1.1-.37-3-11.28Z"/><path class="cls-5" d="M255.76,87.9A4.21,4.21,0,0,1,252,92.51a4.16,4.16,0,0,1-4.46-3.87A4.21,4.21,0,0,1,251.29,84,4.16,4.16,0,0,1,255.76,87.9Z"/><path class="cls-8" d="M250.33,89.66s-.26-3.07,2.62-2.84"/><polyline class="cls-8" points="234.27 87.11 234.01 90.4 235.42 90.42"/><path class="cls-7" d="M240.46,80.45s-2.34-.16-2.35.83c0,0,0,.66,2.05.76s2.57-.07,2.74-.7S241.55,80.44,240.46,80.45Z"/><path class="cls-7" d="M230.7,82.76s1.92-.24,2.1.68c0,0,.1.62-1.58.79s-2.24,0-2.41-.54S229.78,82.79,230.7,82.76Z"/><ellipse class="cls-7" cx="231.19" cy="86.55" rx="0.98" ry="1.01" transform="translate(-4.16 12.04) rotate(-2.96)"/><ellipse class="cls-7" cx="239.77" cy="86.1" rx="0.98" ry="1.01" transform="translate(-4.12 12.49) rotate(-2.96)"/><path class="cls-8" d="M238.39,91.84c-.41.62-2,1.76-4.63,1.07"/><path class="cls-5" d="M235.92,108.1l-5.13.89s-1.76,5.73,9.92,6,14.75-5.63,14.75-5.63L242.34,107Z"/><polygon class="cls-5" points="233.31 306.06 226.66 287.4 238.14 286.81 244.8 307.31 233.73 307.31 233.31 306.06"/><path class="cls-7" d="M244.62,301.66s-9.94,4.22-14.56-2.57L208.61,312h39Z"/><rect class="cls-9" x="208.61" y="311.99" width="39.01" height="3.68" transform="translate(456.23 627.67) rotate(180)"/><path class="cls-9" d="M230.54,304.85a.67.67,0,0,1-.55-.28,14.23,14.23,0,0,0-3.12-3.24.67.67,0,0,1,.75-1.12,15.22,15.22,0,0,1,3.46,3.57.67.67,0,0,1-.55,1.06Z"/><path class="cls-9" d="M227.26,306.56a.67.67,0,0,1-.55-.28,14.24,14.24,0,0,0-3.12-3.24.67.67,0,0,1,.75-1.12,15.22,15.22,0,0,1,3.46,3.57.67.67,0,0,1-.55,1.06Z"/><path class="cls-9" d="M224,308.26a.67.67,0,0,1-.55-.28,14.24,14.24,0,0,0-3.12-3.24.67.67,0,0,1,.75-1.12,15.26,15.26,0,0,1,3.46,3.57.67.67,0,0,1-.55,1.06Z"/><path class="cls-10" d="M221,163l-19.45,52a10.75,10.75,0,0,0-.39,6.27l17.23,72,29.22-7.37L234.07,219l23.64-55.27Z"/><polygon class="cls-10" points="247.62 285.91 245.21 274 213.24 282.46 216.39 293.79 247.62 285.91"/><line class="cls-11" x1="245.21" y1="274.01" x2="215.66" y2="281.82"/><polygon class="cls-5" points="290.3 298.26 278.03 278.51 288.31 273.37 301.32 294.8 291.18 299.24 290.3 298.26"/><path class="cls-7" d="M299.91,289.69s-7.42,7.85-14.37,3.48l-14.48,20.42L306.81,298Z"/><rect class="cls-9" x="270.17" y="305.62" width="39.01" height="3.68" transform="translate(678.32 472.98) rotate(156.36)"/><path class="cls-9" d="M288,298.32a.68.68,0,0,1-.34-.09,14.19,14.19,0,0,0-4.15-1.72.67.67,0,0,1,.24-1.32,15.22,15.22,0,0,1,4.6,1.88.67.67,0,0,1-.35,1.25Z"/><path class="cls-9" d="M285.7,301.2a.67.67,0,0,1-.34-.09,14.19,14.19,0,0,0-4.15-1.72.67.67,0,0,1,.24-1.32,15.22,15.22,0,0,1,4.6,1.88.67.67,0,0,1-.35,1.25Z"/><path class="cls-9" d="M283.37,304.07A.67.67,0,0,1,283,304a14.2,14.2,0,0,0-4.15-1.71.67.67,0,0,1,.24-1.32,15.23,15.23,0,0,1,4.6,1.88.67.67,0,0,1-.35,1.25Z"/><path class="cls-10" d="M261.82,163.79l8.77,55.09,31.6,56.84-31.6,9-27.36-53.83a58.23,58.23,0,0,1-4.8-13.17l-12.58-54Z"/><line class="cls-11" x1="237.03" y1="212.25" x2="229.46" y2="181.24"/><polygon class="cls-10" points="302.19 275.72 295.48 263.64 262.63 273.72 268.58 285.33 302.19 275.72"/><line class="cls-11" x1="264.67" y1="273.1" x2="295.47" y2="263.64"/><path id="_Clipping_Path_4" data-name="&lt;Clipping Path&gt;" class="cls-1" d="M165.71,122.72c-6.38-3-7.41-5.68-7.41-5.68l-2.56,2.21-.3.26-2.56,2.21s2.51,1.42,4.52,8.16c.21.71.38,1.43.55,2.16.31,1.36,1.59,5.42,6.64,11,4.48,4.92,10.77,12.35,14,16.18a3.21,3.21,0,0,0,4.55.36l3.63-3.13.87-.75,3.63-3.13a3.21,3.21,0,0,0,.31-4.56c-3.32-3.75-9.74-11.07-13.94-16.22-4.74-5.81-8.56-7.67-9.86-8.18C167.07,123.31,166.38,123,165.71,122.72Z"/><g class="cls-12"><path class="cls-2" d="M153.73,117.21s5.17,7.09,11.71,11a16.48,16.48,0,0,1,4,3.42L186.14,151a6.91,6.91,0,0,1,.72,7.14l8.76-7.55L161.28,110.7Z"/></g><rect class="cls-13" x="151.3" y="118.43" width="9.02" height="2.51" transform="translate(-40.35 130.76) rotate(-40.76)"/><path id="_Clipping_Path_5" data-name="&lt;Clipping Path&gt;" class="cls-2" d="M165.07,158c-1.51,6.88-3.91,8.48-3.91,8.48l2.71,2,.32.23,2.71,2s.83-2.76,7-6.21c.65-.36,1.31-.69,2-1,1.26-.6,4.93-2.74,9.23-8.89,3.81-5.45,9.67-13.22,12.7-17.21a3.21,3.21,0,0,0-.65-4.52L193.3,130l-.92-.68-3.85-2.85a3.21,3.21,0,0,0-4.51.7c-2.93,4.07-8.65,11.94-12.75,17.18-4.62,5.9-5.6,10-5.81,11.42C165.35,156.53,165.23,157.25,165.07,158Z"/><g class="cls-14"><path class="cls-1" d="M162.34,170.88s5.78-6.61,8.14-13.85a16.48,16.48,0,0,1,2.45-4.69l15.19-20.52a6.91,6.91,0,0,1,6.8-2.28l-9.3-6.88-31.3,42.28Z"/></g><rect class="cls-13" x="159.79" y="167.05" width="9.02" height="2.51" transform="translate(196.21 401.33) rotate(-143.49)"/><path id="_Clipping_Path_6" data-name="&lt;Clipping Path&gt;" class="cls-1" d="M244.94,133.67c2.38-6.63,5-7.91,5-7.91l-2.44-2.34-.28-.27-2.44-2.34s-1.17,2.63-7.7,5.27c-.69.28-1.39.52-2.1.75-1.33.43-5.24,2.09-10.29,7.63-4.48,4.92-11.28,11.88-14.8,15.45a3.21,3.21,0,0,0,.06,4.57l3.45,3.32.83.8,3.45,3.32a3.21,3.21,0,0,0,4.57-.12c3.43-3.66,10.11-10.73,14.85-15.4,5.34-5.26,6.84-9.24,7.22-10.59C244.48,135.07,244.69,134.37,244.94,133.67Z"/><g class="cls-15"><path class="cls-2" d="M249.3,121.22s-6.58,5.81-9.84,12.69a16.48,16.48,0,0,1-3,4.33l-17.69,18.41a6.91,6.91,0,0,1-7,1.39l8.34,8,36.45-37.93Z"/></g><rect class="cls-13" x="242.52" y="122.27" width="9.02" height="2.51" transform="translate(154.52 -136.71) rotate(43.86)"/><rect class="cls-13" x="200.21" y="120.43" width="18.52" height="2.42" transform="translate(51.3 -61.82) rotate(19.09)"/><path class="cls-1" d="M215.21,126.49l-13.36-4.62a.75.75,0,0,1-.46-1h0a.75.75,0,0,1,1-.46l13.36,4.62a.75.75,0,0,1,.46,1h0A.75.75,0,0,1,215.21,126.49Z"/><rect id="_Rectangle_2" data-name="&lt;Rectangle&gt;" class="cls-1" x="193.54" y="123.43" width="21" height="27.88" rx="3.72" ry="3.72" transform="translate(56.15 -59.18) rotate(19.09)"/><g class="cls-16"><path class="cls-2" d="M208.3,120a10,10,0,0,1,1.28,10.26l-5.52,16s-1.85,5.82-5.43,6.61L210.91,157l13.19-32.24Z"/></g><rect class="cls-17" x="149.81" y="134.37" width="108.66" height="66.86" transform="translate(0.67 -0.81) rotate(0.23)"/><rect class="cls-18" x="149.81" y="134.22" width="41.53" height="66.86" transform="translate(0.58 -0.58) rotate(0.2)"/><path class="cls-5" d="M258.76,130.84,258,162.57a8.59,8.59,0,0,0,9,8.87h0a8.59,8.59,0,0,0,8.11-7.79l2.45-31.6Z"/><path class="cls-6" d="M258.6,137.48l.36-17.53c1-4.53,2.92-7.79,7.52-8.29h0a10.77,10.77,0,0,1,11.85,9.54l1.92,15.11Z"/><path class="cls-5" d="M260.29,157.28c-9.52,9.67-28.1,28-28.1,28l8.18,10.09L271.84,170a8.61,8.61,0,0,0,.9-12.55h0A8.61,8.61,0,0,0,260.29,157.28Z"/><path class="cls-5" d="M232.2,185.26s-3.19-.92-10.29,5.35l-3.57,3.07a2.07,2.07,0,0,0,.26,3.3h0a2.07,2.07,0,0,0,2.39-.12c2-1.62,4.78-3.45,6.1-3.53,0,0-1.54,4.93-10.75,9.12a2.33,2.33,0,0,0-1.08,3.31c.42.64,1.15,1,2.45.6,5-1.67,6.62.86,11.43-5.21l7.38-10.59Z"/><path class="cls-5" d="M216.42,205.41s5.32,4.58,9.29,3.39,7.37-2.51,11.66-9.1,6.14-9.71,6.14-9.71l-11.32-4.73-2.74,12.06Z"/></svg>