<svg xmlns="http://www.w3.org/2000/svg" xmlns:xlink="http://www.w3.org/1999/xlink" viewBox="0 0 515.86 549.47"><defs><style>.cls-1{fill:#8ad4e4;}.cls-2{isolation:isolate;}.cls-3{clip-path:url(#clip-path);}.cls-4{fill:#5ebf89;}.cls-5{fill:#d1d1d1;opacity:0.45;mix-blend-mode:multiply;}.cls-6{fill:#00a087;}.cls-7{fill:#19b397;}.cls-8{fill:#e9eaf2;}.cls-9{fill:#208277;}.cls-10{fill:#fff;}.cls-11{fill:none;stroke:#fff;stroke-miterlimit:10;stroke-width:1.16px;}.cls-12{fill:#f2f2f2;}.cls-13{fill:#f9f9fa;}.cls-14{fill:#ffe457;}</style><clipPath id="clip-path" transform="translate(-11.63 0)"><circle id="_Ellipse_" data-name="&lt;Ellipse&gt;" class="cls-1" cx="258.06" cy="263.48" r="179.9"/></clipPath></defs><title>notfound</title><g class="cls-2"><g id="Layer_1" data-name="Layer 1"><circle id="_Ellipse_2" data-name="&lt;Ellipse&gt;" class="cls-1" cx="246.43" cy="263.48" r="179.9"/><g class="cls-3"><path class="cls-4" d="M98.55,129.93s27.38-21.14,50.92-7.69,37.47,12,22.1,30.74-20.66,24-10.09,32.18S172,183.25,178,177s19-6.72,25.72,8.17,17.77,22.1,0,36-38.91,36-50.92,35.55-22.58,1-18.73,15.85,16.33,21.62,27.86,24.5,74.45,18.25,76.37,37S197,415.74,196.54,431.59s5.76,17.29-1.44,20.17-24.5-21.14-23.54-23.54c0,0-1.65-4.24,1.48-20.6s8.35-34.8-2.44-36.89S141,362,148.68,348.47s11.14-19.49,9.4-23-7.14-7.88-11.31-18.67-25.4-14.42-32.36-18.35-10.66-5.79-15.86-24.58S93.7,204.4,87.44,197.09A83.52,83.52,0,0,0,75.6,185.61Z" transform="translate(-11.63 0)"/><path class="cls-4" d="M186.61,114.11s-3.79,10.67,7.56,12.21c12.88,1.75,25.57,5.81,25,19.76S218,172.81,234.85,176.3s13.95-15.11,18-18,15.69,2.91,20.34-22.67,17.21-33.48,2.91-38.36c-26.85-9.16-31.18,7-63.35,6.39C197.08,103.35,189.68,104.69,186.61,114.11Z" transform="translate(-11.63 0)"/><path class="cls-4" d="M352.64,138.28a42,42,0,0,0-23.86,16c-14.17,19.32-40,55.63-39.15,62.46,1.17,9.4,4.7,24.67,12.92,25.25,6,.43,24.1-8.79,33.52-13.84a20.93,20.93,0,0,1,12.48-2.34c11,1.36,32.15,3.65,33.88,1.49,2.35-2.94,8.81-15.86,14.1-8.22s13.51,17,0,17-28.19-4.7-28.19,10,8.81,46.4,27.6,47,16.32-13.79,15.14-16.73-6-12.11-5-14.93c2.48-6.85,25.1-.64,25.1,8.17S430,302.47,450,306s11.55-16.64,13.51-25.25,18.79-17,20.56,11.16,7,20.07,16.44,14.44,10-27.95,13.51-31.47,13.51-17,13.51-17L489.9,125.11S432.94,118.68,352.64,138.28Z" transform="translate(-11.63 0)"/><path class="cls-4" d="M345.2,260.31s-15.74-8.08-31.06-4.68-27.66,5.53-34.89,18.72-5.27,34.94,0,40.85c9.06,10.15,34.46,4.25,37.44,18.3s17,27.23,15.32,37.87-6.81,35.31,11.49,39.14,30.21-46,35.31-53.18,16.59-43.82,3-48.93-18.35-14.65-20-24.25C360.57,277,356.94,264.42,345.2,260.31Z" transform="translate(-11.63 0)"/><path class="cls-5" d="M132.37,425.94s135.36,16.91,225.28-91.89c79.64-96.36,52.16-179.13,52.16-179.13l82.27,71.82L479.41,384.66l-145,164.82L167.21,468.65l-36.45-47.54Z" transform="translate(-11.63 0)"/></g><path class="cls-6" d="M257,83.91c0,.42,15.26,32.35,15.26,32.35H240.87Z" transform="translate(-11.63 0)"/><polygon class="cls-7" points="245.34 83.91 240.63 116.26 229.24 116.26 245.34 83.91"/><polygon class="cls-8" points="240.43 93.79 243.67 95.41 246.89 93.79 250.68 95.41 245.34 80.89 240.43 93.79"/><path class="cls-6" d="M227,68.76c0,.62,22.4,47.5,22.4,47.5h-46Z" transform="translate(-11.63 0)"/><polygon class="cls-7" points="215.41 68.76 208.48 116.26 191.76 116.26 215.41 68.76"/><polygon class="cls-8" points="208.19 83.26 212.94 85.65 217.68 83.26 223.25 85.65 215.41 65.74 208.19 83.26"/><polygon class="cls-9" points="164.37 204.66 161.49 204.66 161.49 185.87 164.37 186.31 164.37 204.66"/><circle class="cls-6" cx="162.93" cy="188.93" r="9.32"/><polygon class="cls-9" points="120.05 147.78 117.17 147.78 117.17 128.98 120.05 129.43 120.05 147.78"/><circle class="cls-6" cx="118.61" cy="132.05" r="9.32"/><polygon class="cls-9" points="340 285.49 337.13 285.49 337.13 266.7 340 267.15 340 285.49"/><circle class="cls-6" cx="338.57" cy="269.76" r="9.32"/><polygon class="cls-9" points="311.4 273.24 308.52 273.24 308.52 254.45 311.4 254.9 311.4 273.24"/><circle class="cls-6" cx="309.96" cy="257.51" r="9.32"/><rect class="cls-9" x="84.72" y="180.47" width="6.02" height="12.73"/><polygon class="cls-6" points="66.95 186.86 100.95 186.86 111.5 163.62 78.48 163.62 66.95 186.86"/><path class="cls-10" d="M110.69,184.45h-28l9.22-18.85H119Zm-26.15-1.16h25.39l7.32-16.53H92.63Z" transform="translate(-11.63 0)"/><rect class="cls-10" x="76.31" y="174.44" width="26.29" height="1.16"/><rect class="cls-10" x="90.3" y="174.61" width="19.29" height="1.16" transform="translate(-112.93 188.64) rotate(-64.12)"/><rect class="cls-9" x="115.6" y="203.46" width="6.02" height="12.73"/><polygon class="cls-6" points="97.83 209.85 131.83 209.85 142.38 186.61 109.36 186.61 97.83 209.85"/><polygon class="cls-11" points="102.87 206.86 111.52 189.17 137.4 189.17 129.57 206.86 102.87 206.86"/><line class="cls-11" x1="107.2" y1="198.02" x2="133.49" y2="198.02"/><line class="cls-11" x1="123.42" y1="189.5" x2="114.99" y2="206.86"/><path class="cls-6" d="M242.66,140.27a3.79,3.79,0,0,0-3.4,2.11,5,5,0,0,0-9.83,1.5h17A3.79,3.79,0,0,0,242.66,140.27Z" transform="translate(-11.63 0)"/><path class="cls-6" d="M313.12,287.47a3.79,3.79,0,0,0-3.4,2.11,5,5,0,0,0-9.83,1.5h17A3.79,3.79,0,0,0,313.12,287.47Z" transform="translate(-11.63 0)"/><polygon class="cls-12" points="314.72 154.24 312.98 210 318.73 210 315.75 154.02 314.72 154.24"/><path class="cls-13" d="M326.77,155.33s-.12,3.5,9.62,17.9a.49.49,0,0,0,.62.17h0a.49.49,0,0,0,.24-.6c-.9-2.54-5.78-16.08-8.89-18.26Z" transform="translate(-11.63 0)"/><path class="cls-13" d="M328.1,153.93s3.2-1.41,12-16.42a.49.49,0,0,0-.12-.63h0a.49.49,0,0,0-.65,0c-1.9,1.91-12,12.18-12.61,15.92Z" transform="translate(-11.63 0)"/><path class="cls-13" d="M326.59,152.62s-2.65-2.28-20-3.72a.49.49,0,0,0-.52.38h0a.49.49,0,0,0,.31.57c2.54.89,16.16,5.57,19.8,4.51Z" transform="translate(-11.63 0)"/><circle class="cls-12" cx="326.96" cy="153.99" r="2" transform="translate(-46.02 160.52) rotate(-26.26)"/><polygon class="cls-12" points="270.66 248.61 269.35 290.59 273.68 290.59 271.44 248.45 270.66 248.61"/><path class="cls-13" d="M282.61,249.44s-.09,2.63,7.24,13.48a.37.37,0,0,0,.47.13h0a.37.37,0,0,0,.18-.45c-.67-1.91-4.35-12.1-6.69-13.75Z" transform="translate(-11.63 0)"/><path class="cls-13" d="M283.61,248.38s2.41-1.06,9-12.36a.37.37,0,0,0-.09-.48h0a.37.37,0,0,0-.49,0c-1.43,1.43-9,9.17-9.49,12Z" transform="translate(-11.63 0)"/><path class="cls-13" d="M282.47,247.4s-2-1.72-15-2.8a.37.37,0,0,0-.39.29h0a.37.37,0,0,0,.24.43c1.91.67,12.16,4.19,14.91,3.4Z" transform="translate(-11.63 0)"/><circle class="cls-12" cx="282.75" cy="248.42" r="1.5" transform="translate(-92.35 150.69) rotate(-26.25)"/><polygon class="cls-12" points="349.18 167.83 348.04 204.39 351.81 204.39 349.86 167.69 349.18 167.83"/><path class="cls-13" d="M360.17,167.69s-2.24.47-9.89,8.93a.32.32,0,0,0,0,.42h0a.32.32,0,0,0,.42.06c1.47-1,9.33-6.2,10.23-8.52Z" transform="translate(-11.63 0)"/><path class="cls-13" d="M361.27,168.31s1.4,1.82,12.33,5a.32.32,0,0,0,.38-.18h0a.32.32,0,0,0-.13-.41c-1.51-.91-9.63-5.72-12.11-5.53Z" transform="translate(-11.63 0)"/><path class="cls-13" d="M361.87,167.15s1-2-.76-13.31a.32.32,0,0,0-.32-.27h0a.32.32,0,0,0-.31.29c-.17,1.76-1,11.16.23,13.31Z" transform="translate(-11.63 0)"/><circle class="cls-12" cx="361.06" cy="167.6" r="1.31" transform="translate(-34.74 271.84) rotate(-40.08)"/><rect class="cls-9" x="171.59" y="322.19" width="3.1" height="9.6"/><polygon class="cls-7" points="173.21 282.36 163.1 325.23 183.6 325.23 173.21 282.36"/><path class="cls-6" d="M185,325.23c-.08,0-.14-42.88-.14-42.88l10.39,42.88Z" transform="translate(-11.63 0)"/><rect class="cls-9" x="205.42" y="336.92" width="2.22" height="6.89"/><polygon class="cls-7" points="206.58 308.33 199.33 339.1 214.04 339.1 206.58 308.33"/><path class="cls-6" d="M218.31,339.1c-.06,0-.1-30.77-.1-30.77l7.46,30.77Z" transform="translate(-11.63 0)"/><rect class="cls-9" x="320.53" y="319.18" width="2.22" height="6.89"/><polygon class="cls-7" points="321.69 290.59 314.43 321.36 329.14 321.36 321.69 290.59"/><path class="cls-6" d="M333.42,321.36c-.06,0-.1-30.77-.1-30.77l7.46,30.77Z" transform="translate(-11.63 0)"/><ellipse class="cls-14" cx="343.93" cy="23.48" rx="23.41" ry="23.48"/><path class="cls-8" d="M276.66,35.86c2.6.27,5.19.56,7.77.92q-.12-1.28-.22-2.57c-2.43-.33-4.86-.6-7.31-.85C276.83,34.19,276.75,35,276.66,35.86Z" transform="translate(-11.63 0)"/><path class="cls-8" d="M469.87,173.33a235.14,235.14,0,0,0-45.27-69.64c-.45.74-.91,1.48-1.38,2.21a232.68,232.68,0,0,1,44.32,68.41A235.84,235.84,0,0,1,479,208.57q1.24-.23,2.49-.43A238.42,238.42,0,0,0,469.87,173.33Z" transform="translate(-11.63 0)"/><path class="cls-8" d="M488.37,256a231.5,231.5,0,0,0-2.6-27c-.84.08-1.69.15-2.53.18a229.17,229.17,0,0,1,2.59,26.34Z" transform="translate(-11.63 0)"/><path class="cls-8" d="M486.6,295l-2.5-.37a232.21,232.21,0,0,1-6.22,31.08q1.32-.09,2.63-.09A234.83,234.83,0,0,0,486.6,295Z" transform="translate(-11.63 0)"/><path class="cls-8" d="M439.08,405.09a4.34,4.34,0,0,1,2.68.63,236.63,236.63,0,0,0,29.42-52.35q2.3-5.68,4.3-11.42c-.82-.18-1.65-.38-2.47-.59q-1.94,5.56-4.17,11.06A234,234,0,0,1,439.08,405.09Z" transform="translate(-11.63 0)"/><path class="cls-8" d="M130.78,465.56A230.13,230.13,0,0,1,75,413.5q-1,.73-2,1.49a232.62,232.62,0,0,0,56.57,52.76Q130.12,466.64,130.78,465.56Z" transform="translate(-11.63 0)"/><path class="cls-8" d="M121.59,72.59a4.15,4.15,0,0,1-3.7-.19,232.63,232.63,0,0,0-42.52,38.36q.84.95,1.65,1.91a230.08,230.08,0,0,1,44.66-39.84C121.65,72.76,121.62,72.68,121.59,72.59Z" transform="translate(-11.63 0)"/><path class="cls-8" d="M45.59,159.23l.21.13a232.7,232.7,0,0,1,23-36.59l-1.91-1.59A235.79,235.79,0,0,0,43.72,157.9Z" transform="translate(-11.63 0)"/><path class="cls-8" d="M37.72,170.56c-.86,2-1.71,3.93-2.52,5.92A237,237,0,0,0,20.56,229.4q1.28,0,2.56,0a234.5,234.5,0,0,1,14.41-51.92c.79-1.94,1.62-3.86,2.45-5.77Z" transform="translate(-11.63 0)"/><path class="cls-8" d="M63.56,397.17q-4.9-7.66-9.25-15.76a233,233,0,0,1-24.77-73.35l-2.5.31a235.54,235.54,0,0,0,25,74.23q4.35,8.13,9.27,15.81C62.09,398,62.82,397.57,63.56,397.17Z" transform="translate(-11.63 0)"/><path class="cls-8" d="M226.63,36q5.82-.64,11.7-1a236.71,236.71,0,0,1,25.22-.16c.09-.84.2-1.67.33-2.51a239,239,0,0,0-25.71.15q-5.81.35-11.56,1C226.64,34.34,226.64,35.18,226.63,36Z" transform="translate(-11.63 0)"/><path class="cls-8" d="M237.23,496.24c-2.6-.27-5.19-.56-7.77-.92q.12,1.28.22,2.57c2.43.33,4.86.6,7.31.85C237.06,497.91,237.14,497.07,237.23,496.24Z" transform="translate(-11.63 0)"/><path class="cls-8" d="M287.25,496.07q-5.82.64-11.7,1a236.71,236.71,0,0,1-25.22.16c-.09.84-.2,1.67-.33,2.51a239,239,0,0,0,25.71-.15q5.81-.35,11.56-1C287.24,497.76,287.24,496.91,287.25,496.07Z" transform="translate(-11.63 0)"/><path class="cls-8" d="M91.17,287.29H11.63S17.46,263.4,38,263.4A30.1,30.1,0,0,1,64.26,278c6-2.35,19-5.21,26.91,9.25" transform="translate(-11.63 0)"/><path class="cls-8" d="M435.1,60.08H343.91s6.68-27.39,30.27-27.39a34.5,34.5,0,0,1,30.07,16.78c6.89-2.7,21.73-6,30.85,10.61" transform="translate(-11.63 0)"/><path class="cls-8" d="M429.9,475H327.33s7.52-30.8,34-30.8A38.81,38.81,0,0,1,395.2,463c7.75-3,24.44-6.71,34.7,11.93" transform="translate(-11.63 0)"/></g></g></svg>